<svg width="44" height="45" viewBox="0 0 44 45" fill="none" xmlns="http://www.w3.org/2000/svg">
<path fill-rule="evenodd" clip-rule="evenodd" d="M23.8788 34.6941C26.719 34.626 29 32.3558 29 29.5652V28.2826C29 27.5742 28.4121 27 27.6869 27H26.3737C23.5101 27 21.1816 29.2384 21.1224 32.0217C21.1216 32.0394 21.1212 32.0572 21.1212 32.0751V32.712C20.379 32.3133 19.5293 32.087 18.6263 32.087H17.3131C16.5879 32.087 16 32.6709 16 33.3913V34.6957C16 37.5335 18.281 39.8422 21.1212 39.9114V43.7075C21.1212 44.4213 21.7385 45 22.5 45C23.2615 45 23.8788 44.4213 23.8788 43.7075V34.6941ZM23.8788 32.1273C25.2682 32.0605 26.3737 30.9389 26.3737 29.5652C25.097 29.5652 24.0331 30.455 23.7965 31.6344C23.8498 31.7719 23.8788 31.9203 23.8788 32.0751V32.1273ZM21.1212 37.3011V36.4875C20.7761 35.4469 19.7895 34.6957 18.6263 34.6957C18.6263 36.0927 19.7318 37.2332 21.1212 37.3011Z" fill="#33CC99"/>
<path fill-rule="evenodd" clip-rule="evenodd" d="M38.8788 34.6941C41.719 34.626 44 32.3558 44 29.5652V28.2826C44 27.5742 43.4121 27 42.6869 27H41.3737C38.5101 27 36.1816 29.2384 36.1224 32.0217C36.1216 32.0394 36.1212 32.0572 36.1212 32.0751V32.712C35.379 32.3133 34.5293 32.087 33.6263 32.087H32.3131C31.5879 32.087 31 32.6709 31 33.3913V34.6957C31 37.5335 33.281 39.8422 36.1212 39.9114V43.7075C36.1212 44.4213 36.7385 45 37.5 45C38.2615 45 38.8788 44.4213 38.8788 43.7075V34.6941ZM38.8788 32.1273C40.2682 32.0605 41.3737 30.9389 41.3737 29.5652C40.097 29.5652 39.0331 30.455 38.7965 31.6344C38.8498 31.7719 38.8788 31.9203 38.8788 32.0751V32.1273ZM36.1212 37.3011V36.4875C35.7761 35.4469 34.7895 34.6957 33.6263 34.6957C33.6263 36.0927 34.7318 37.2332 36.1212 37.3011Z" fill="#33CC99"/>
<path fill-rule="evenodd" clip-rule="evenodd" d="M8.87879 34.6941C11.719 34.626 14 32.3558 14 29.5652V28.2826C14 27.5742 13.4121 27 12.6869 27H11.3737C8.51006 27 6.18164 29.2384 6.12237 32.0217C6.1216 32.0394 6.12121 32.0572 6.12121 32.0751V32.712C5.37902 32.3133 4.52925 32.087 3.62626 32.087H2.31313C1.58791 32.087 1 32.6709 1 33.3913V34.6957C1 37.5335 3.281 39.8422 6.12121 39.9114V43.7075C6.12121 44.4213 6.73852 45 7.5 45C8.26148 45 8.87879 44.4213 8.87879 43.7075V34.6941ZM8.87879 32.1273C10.2682 32.0605 11.3737 30.9389 11.3737 29.5652C10.097 29.5652 9.03312 30.455 8.79655 31.6344C8.84977 31.7719 8.87879 31.9203 8.87879 32.0751V32.1273ZM6.12121 37.3011V36.4875C5.7761 35.4469 4.7895 34.6957 3.62626 34.6957C3.62626 36.0927 4.73177 37.2332 6.12121 37.3011Z" fill="#33CC99"/>
<path fill-rule="evenodd" clip-rule="evenodd" d="M2.11111 1C1.49746 1 1 1.50011 1 2.11702C1 2.73394 1.49746 3.23404 2.11111 3.23404H5.59259L5.59259 5.11465C4.17466 5.57109 3.14815 6.90705 3.14815 8.48404L3.14815 11.4628C3.14815 13.4163 4.72344 15 6.66667 15C8.60989 15 10.1852 13.4163 10.1852 11.4628V10.7553H12.2453C12.4695 12.4087 13.3073 13.866 14.5203 14.8875C13.1203 15.7431 12.1852 17.291 12.1852 19.0585V20.883C12.1852 21.4999 12.6826 22 13.2963 22C13.9099 22 14.4074 21.4999 14.4074 20.883V19.0585C14.4074 17.5985 15.5847 16.4149 17.037 16.4149H26.963C28.4153 16.4149 29.5926 17.5985 29.5926 19.0585V20.883C29.5926 21.4999 30.0901 22 30.7037 22C31.3174 22 31.8148 21.4999 31.8148 20.883V19.0585C31.8148 17.291 30.8797 15.7431 29.4797 14.8875C30.6927 13.866 31.5305 12.4088 31.7547 10.7553H33.8148V11.4628C33.8148 13.4163 35.3901 15 37.3333 15C39.2766 15 40.8519 13.4163 40.8519 11.4628V8.48404C40.8519 6.87972 39.7894 5.52486 38.3333 5.09171V3.23404H41.8889C42.5025 3.23404 43 2.73394 43 2.11702C43 1.50011 42.5025 1 41.8889 1H32.5556C31.9419 1 31.4444 1.50011 31.4444 2.11702C31.4444 2.73394 31.9419 3.23404 32.5556 3.23404H36.1111V5.16605C34.7704 5.66538 33.8148 6.96252 33.8148 8.48404V8.52128L31.6783 8.52128C31.063 5.54494 28.4394 3.30851 25.2963 3.30851H18.7037C15.5606 3.30851 12.937 5.54494 12.3217 8.52128L10.1852 8.52128V8.48404C10.1852 6.93465 9.19428 5.61792 7.81481 5.13941V3.23404H11.4444C12.0581 3.23404 12.5556 2.73394 12.5556 2.11702C12.5556 1.50011 12.0581 1 11.4444 1H2.11111ZM25.2963 14.1809C27.6691 14.1809 29.5926 12.2471 29.5926 9.8617C29.5926 7.4763 27.6691 5.54255 25.2963 5.54255H18.7037C16.3309 5.54255 14.4074 7.4763 14.4074 9.8617C14.4074 12.2471 16.3309 14.1809 18.7037 14.1809H25.2963ZM38.6296 8.48404C38.6296 7.76431 38.0493 7.18085 37.3333 7.18085C36.6174 7.18085 36.037 7.76431 36.037 8.48404V11.4628C36.037 12.1825 36.6174 12.766 37.3333 12.766C38.0493 12.766 38.6296 12.1825 38.6296 11.4628V8.48404ZM6.66667 7.18085C7.38259 7.18085 7.96296 7.76431 7.96296 8.48404L7.96296 11.4628C7.96296 12.1825 7.38259 12.766 6.66667 12.766C5.95074 12.766 5.37037 12.1825 5.37037 11.4628V8.48404C5.37037 7.76431 5.95074 7.18085 6.66667 7.18085Z" fill="#005E59" stroke="#005E59" stroke-linecap="round" stroke-linejoin="round"/>
</svg>
