<svg width="46" height="48" viewBox="0 0 46 48" fill="none" xmlns="http://www.w3.org/2000/svg">
<circle cx="29" cy="27" r="7.5" stroke="#33CC99" stroke-width="3"/>
<line x1="23.9393" y1="31.9891" x2="33.9892" y2="21.9393" stroke="#33CC99" stroke-width="3"/>
<path d="M21.97 48C24.5792 48 26.6224 46.2749 26.9675 43.7081H24.7449C24.4964 45.1295 23.4057 46.1231 21.9976 46.1231C20.2995 46.1231 19.1537 44.7707 19.1537 42.8248C19.1537 40.8928 20.2995 39.5541 21.9976 39.5541C23.4057 39.5541 24.5102 40.534 24.7449 41.9554H26.9675C26.6224 39.4161 24.5792 37.6773 21.97 37.6773C19.1813 37.6773 17 39.9268 17 42.8248C17 45.7367 19.1813 48 21.97 48Z" fill="#33CC99"/>
<path d="M32.9195 48C35.7911 48 38.0137 45.7919 38.0137 42.8248C38.0137 39.8577 35.7911 37.6773 32.9195 37.6773C30.0618 37.6773 27.8529 39.8577 27.8529 42.8248C27.8529 45.7919 30.0618 48 32.9195 48ZM32.9195 46.1231C31.111 46.1231 30.0066 44.6465 30.0066 42.8248C30.0066 41.0032 31.111 39.5541 32.9195 39.5541C34.7419 39.5541 35.8463 41.0032 35.8463 42.8248C35.8463 44.6465 34.7419 46.1231 32.9195 46.1231Z" fill="#33CC99"/>
<path d="M43 39.5541H40.6807L41.509 38.7675C42.4892 37.9119 42.9034 37.4289 42.9034 36.6837C42.9034 35.8418 42.1165 35 40.7497 35C39.4382 35 38.4856 35.8004 38.4856 36.9597H39.7143C39.7143 36.4214 40.0732 36.1316 40.6669 36.1316C41.2467 36.1316 41.578 36.4628 41.578 36.8493C41.578 37.3323 41.2053 37.6911 40.5564 38.2707L38.6789 39.9682L38.6651 40.6858H43V39.5541Z" fill="#33CC99"/>
<path d="M17.3462 32.6923C12.4216 32.6923 8.03881 30.3727 5.23077 26.7665C3.20601 24.1663 2 20.897 2 17.3462C2 8.87071 8.87071 2 17.3462 2C23.5686 2 28.926 5.70334 31.3346 11.0262C31.908 10.933 32.4964 10.8846 33.0962 10.8846C39.1182 10.8846 44 15.7664 44 21.7885C44 24.9524 42.6525 27.8015 40.5 29.7933" stroke="#005E59" stroke-width="3" stroke-linecap="round"/>
</svg>
