<svg width="42" height="40" viewBox="0 0 42 40" fill="none" xmlns="http://www.w3.org/2000/svg">
<path d="M40 19C40 21.2091 35.299 23 29.5 23C23.701 23 19 21.2091 19 19M40 19C40 16.7909 35.299 15 29.5 15C23.701 15 19 16.7909 19 19M40 19V27.25M19 19V27.25M19 27.25V32.9607C19 33.2964 19.1721 33.6087 19.456 33.788V33.788C25.055 37.3242 32.1124 37.6153 37.9836 34.552L39.4626 33.7804C39.7929 33.6081 40 33.2664 40 32.8938V27.25M19 27.25L21.2566 28.2709C26.4966 30.6413 32.5034 30.6413 37.7434 28.2709L40 27.25" stroke="#33CC99" stroke-width="3"/>
<path d="M23 6C23 8.20914 18.299 10 12.5 10C6.70101 10 2 8.20914 2 6M23 6C23 3.79086 18.299 2 12.5 2C6.70101 2 2 3.79086 2 6M23 6V10.25M2 6V14.25M12 33.5H10.6512C7.63204 33.5 4.69437 32.5208 2.27907 30.7093V30.7093C2.10339 30.5775 2 30.3708 2 30.1512V22.375M2 14.25V22.375M2 14.25V14.25C4.56985 16.6592 7.96036 18 11.4829 18H12M2 22.375V22.375C4.57424 24.7079 7.92414 26 11.3982 26H12" stroke="#005E59" stroke-width="3" stroke-linecap="round"/>
</svg>
