<svg width="39" height="51" viewBox="0 0 39 51" fill="none" xmlns="http://www.w3.org/2000/svg">
<path d="M22.9014 21.2105H24.6739C24.941 21.2105 25.1969 21.3173 25.3847 21.507L29.4121 25.5764C29.5974 25.7637 29.7014 26.0165 29.7014 26.2799V29.4105C29.7014 29.9628 29.2537 30.4105 28.7014 30.4105H28.3183" stroke="#005E59" stroke-width="2" stroke-linecap="round"/>
<path d="M12.7012 18.6105H19.9012C21.0057 18.6105 21.9012 19.5059 21.9012 20.6105V30.6105H12.7012C11.5966 30.6105 10.7012 29.715 10.7012 28.6105V20.6105C10.7012 19.5059 11.5966 18.6105 12.7012 18.6105Z" stroke="#33CC99" stroke-width="2"/>
<circle cx="15.5012" cy="30.6105" r="2.8" fill="white" stroke="#005E59" stroke-width="2"/>
<circle cx="25.701" cy="31.2105" r="2.2" stroke="#005E59" stroke-width="2"/>
<path d="M27.5832 8.3206C27.9253 7.69575 28.7117 7.4631 29.3138 7.84379C32.7328 10.0055 35.4447 13.1367 37.0941 16.8512C38.9185 20.9597 39.3418 25.5539 38.299 29.9265C37.2561 34.2992 34.8049 38.2078 31.3227 41.0507C28.1744 43.621 24.3412 45.1913 20.3146 45.5773C19.6055 45.6452 19.0087 45.0827 18.9855 44.3707V44.3707C18.9622 43.6587 19.5215 43.0675 20.23 42.9931C23.6908 42.6297 26.9813 41.2649 29.6913 39.0524C32.7353 36.5673 34.878 33.1505 35.7896 29.3281C36.7012 25.5057 36.3312 21.4896 34.7364 17.8982C33.3166 14.7008 30.9963 11.9978 28.072 10.1116C27.4733 9.72547 27.2411 8.94546 27.5832 8.3206V8.3206Z" fill="#005E59"/>
<path d="M11.2752 42.9783C10.9331 43.6032 10.1467 43.8358 9.54461 43.4551C6.12561 41.2934 3.41367 38.1622 1.76426 34.4477C-0.0600737 30.3392 -0.483404 25.745 0.559441 21.3724C1.60228 16.9997 4.05348 13.0911 7.53566 10.2482C10.684 7.67789 14.5172 6.10762 18.5438 5.72164C19.2529 5.65367 19.8497 6.2162 19.8729 6.92819V6.92819C19.8962 7.64018 19.3369 8.23141 18.6284 8.30581C15.1676 8.66923 11.8771 10.0341 9.16711 12.2465C6.12313 14.7317 3.98039 18.1484 3.06878 21.9708C2.15717 25.7932 2.52722 29.8093 4.12198 33.4007C5.54176 36.5981 7.86213 39.3011 10.7864 41.1873C11.3851 41.5734 11.6173 42.3535 11.2752 42.9783V42.9783Z" fill="#005E59"/>
<path d="M22.8633 49.2989L18.5434 44.979C18.1528 44.5884 18.1528 43.9553 18.5434 43.5648L22.8633 39.2448" stroke="#005E59" stroke-width="2.5" stroke-linecap="round"/>
<path d="M15.9951 2L20.315 6.31992C20.7056 6.71044 20.7056 7.34361 20.315 7.73413L15.9951 12.0541" stroke="#005E59" stroke-width="2.5" stroke-linecap="round"/>
</svg>
