<svg width="43" height="40" viewBox="0 0 43 40" fill="none" xmlns="http://www.w3.org/2000/svg">
<path d="M20.333 30.9046L25.2218 34.3331" stroke="#33CC99" stroke-width="2" stroke-linecap="round"/>
<path d="M20.629 28.6475L25.6661 25.9523" stroke="#33CC99" stroke-width="2" stroke-linecap="round"/>
<circle cx="27.7569" cy="24.2432" r="2.2432" stroke="#33CC99" stroke-width="2" stroke-linecap="round"/>
<circle cx="27.1319" cy="35.7986" r="2.2432" stroke="#33CC99" stroke-width="2" stroke-linecap="round"/>
<circle cx="18.2432" cy="29.8647" r="2.2432" stroke="#33CC99" stroke-width="2" stroke-linecap="round"/>
<path d="M10.0829 30.4179C10.027 29.9429 9.70383 29.5294 9.25608 29.3613C5.59536 27.987 3 24.5451 3 20.5166C3 16.5526 5.51171 13.9784 9.0791 12.7156C9.77614 12.4688 10.3205 11.9087 10.5677 11.2118C12.1219 6.83236 16.4763 3 21.5 3C26.5237 3 30.8781 6.83236 32.4323 11.2118C32.6795 11.9087 33.2239 12.4688 33.9209 12.7156C37.4883 13.9784 40 16.5526 40 20.5166C40 24.1835 37.8497 27.3643 34.703 28.9423C34.2825 29.1531 33.9955 29.578 33.955 30.0467V30.0467C33.8817 30.8948 34.6095 31.6396 35.4131 31.3588C39.8335 29.8145 43 25.6524 43 20.7604C43 15.9899 39.9902 11.9155 35.7422 10.2831C35.0524 10.018 34.5092 9.45717 34.271 8.75752C32.5248 3.62744 27.4111 0 21.5 0C15.5889 0 10.4752 3.62744 8.72897 8.75752C8.49082 9.45716 7.94764 10.018 7.25776 10.2831C3.00983 11.9155 0 15.9899 0 20.7604C0 26.0939 3.76381 30.5598 8.81283 31.7115C9.56312 31.8827 10.1729 31.1821 10.0829 30.4179V30.4179Z" fill="#005E59"/>
</svg>
