<svg width="42" height="42" viewBox="0 0 42 42" fill="none" xmlns="http://www.w3.org/2000/svg">
<circle cx="21" cy="21" r="14" stroke="#005E59" stroke-width="3" stroke-linecap="round"/>
<circle cx="21" cy="21" r="6" stroke="#33CC99" stroke-width="3" stroke-linecap="round"/>
<path fill-rule="evenodd" clip-rule="evenodd" d="M21 -6.55671e-08C21.8284 -1.01779e-07 22.5 0.671573 22.5 1.5L22.5 7L19.5 7L19.5 1.5C19.5 0.671573 20.1716 -2.93554e-08 21 -6.55671e-08V-6.55671e-08Z" fill="#005E59"/>
<path fill-rule="evenodd" clip-rule="evenodd" d="M42 21C42 21.8284 41.3284 22.5 40.5 22.5L35 22.5L35 19.5L40.5 19.5C41.3284 19.5 42 20.1716 42 21V21Z" fill="#005E59"/>
<path fill-rule="evenodd" clip-rule="evenodd" d="M21 42C21.8284 42 22.5 41.3284 22.5 40.5L22.5 35L19.5 35L19.5 40.5C19.5 41.3284 20.1716 42 21 42V42Z" fill="#005E59"/>
<path fill-rule="evenodd" clip-rule="evenodd" d="M-1.31134e-07 21C-2.03558e-07 21.8284 0.671573 22.5 1.5 22.5L7 22.5L7 19.5L1.5 19.5C0.671573 19.5 -5.87108e-08 20.1716 -1.31134e-07 21V21Z" fill="#005E59"/>
</svg>
