<svg width="42" height="44" viewBox="0 0 42 44" fill="none" xmlns="http://www.w3.org/2000/svg">
<path fill-rule="evenodd" clip-rule="evenodd" d="M6.31306 20.1868C5.63838 20.1868 5.18525 20.1362 5.04507 20.0492C3.75218 19.6603 2.81319 18.4915 2.81319 17.1099C2.81319 16.9565 2.82477 16.8057 2.84713 16.6583C1.74451 16.0551 1 14.9085 1 13.5934C1 11.6513 2.62358 10.0769 4.62637 10.0769C4.87744 8.34233 6.40343 7 8.25275 7C10.1021 7 11.6281 8.34233 11.8511 10.077C13.8819 10.0769 15.5055 11.6513 15.5055 13.5934C15.5055 14.9085 14.761 16.0551 13.6584 16.6583C13.6807 16.8057 13.6923 16.9565 13.6923 17.1099C13.6923 18.4907 12.7544 19.659 11.4626 20.0486C11.004 20.1868 6.4924 20.1868 6.31306 20.1868Z" stroke="#33CC99" stroke-width="2" stroke-linecap="round" stroke-linejoin="round"/>
<line x1="7.91211" y1="23.1429" x2="7.91211" y2="13.2747" stroke="#33CC99" stroke-width="2" stroke-linecap="round" stroke-linejoin="round"/>
<line x1="8.51165" y1="16.359" x2="11.0787" y2="13.8444" stroke="#33CC99" stroke-width="2" stroke-linecap="round" stroke-linejoin="round"/>
<path fill-rule="evenodd" clip-rule="evenodd" d="M28.3425 16.8242C27.5329 16.8242 26.9891 16.7634 26.8209 16.659C25.2694 16.1924 24.1426 14.7897 24.1426 13.1319C24.1426 12.9478 24.1565 12.7668 24.1834 12.5899C22.8602 11.8661 21.9668 10.4903 21.9668 8.91209C21.9668 6.58157 23.9151 4.69231 26.3184 4.69231C26.6197 2.6108 28.4509 1 30.6701 1C32.8893 1 34.7205 2.6108 34.9881 4.69243C37.4251 4.69231 39.3734 6.58157 39.3734 8.91209C39.3734 10.4903 38.48 11.8661 37.1568 12.5899C37.1837 12.7668 37.1976 12.9478 37.1976 13.1319C37.1976 14.7888 36.072 16.1909 34.5219 16.6583C33.9716 16.8242 28.5577 16.8242 28.3425 16.8242Z" stroke="#33CC99" stroke-width="2" stroke-linecap="round" stroke-linejoin="round"/>
<line x1="30.4609" y1="20.5714" x2="30.4609" y2="8.32967" stroke="#33CC99" stroke-width="2" stroke-linecap="round" stroke-linejoin="round"/>
<line x1="30.9784" y1="12.5137" x2="34.3447" y2="9.21615" stroke="#33CC99" stroke-width="2" stroke-linecap="round" stroke-linejoin="round"/>
<path d="M25.3955 43V42.5714C25.3955 34.2872 32.1112 27.5714 40.3955 27.5714H40.8241" stroke="#005E59" stroke-width="2" stroke-linecap="round"/>
<path d="M30 43V42C30 36.4772 34.4772 32 40 32H41" stroke="#005E59" stroke-width="2" stroke-linecap="round"/>
<path d="M21.1094 43V42.2857C21.1094 31.7923 29.616 23.2857 40.1094 23.2857H40.8237" stroke="#005E59" stroke-width="2" stroke-linecap="round"/>
<mask id="mask0_512_3895" style="mask-type:alpha" maskUnits="userSpaceOnUse" x="1" y="20" width="21" height="23">
<path d="M19.3954 32.2857L17.7448 35.9994C17.7026 36.0945 17.6754 36.1955 17.6644 36.299L17.0925 41.6343C17.0394 42.1305 16.6284 42.5116 16.1295 42.5272L2.29751 42.9595C1.64187 42.98 1.14439 42.3743 1.29188 41.7351L3.9668 30.1429L4.73309 21.3305C4.78255 20.7617 5.29743 20.3497 5.86324 20.4262L19.996 22.336C20.4083 22.3917 20.743 22.6968 20.8365 23.1021L21.876 27.6067C21.9343 27.859 21.8924 28.1241 21.7591 28.3461L19.3954 32.2857Z" fill="#D9D9D9"/>
</mask>
<g mask="url(#mask0_512_3895)">
<path d="M25.3955 43V42.2857C25.3955 31.7923 16.8889 23.2857 6.39551 23.2857H5.68122" stroke="#005E59" stroke-width="2" stroke-linecap="round"/>
<path d="M21.1094 43V42.5714C21.1094 34.2872 14.3936 27.5714 6.10937 27.5714H5.6808" stroke="#005E59" stroke-width="2" stroke-linecap="round"/>
<path d="M17 43V42C17 36.4772 12.5228 32 7 32H6" stroke="#005E59" stroke-width="2" stroke-linecap="round"/>
</g>
<path d="M16.8242 43V42C16.8242 29.2975 27.1217 19 39.8242 19H40.8242" stroke="#005E59" stroke-width="2" stroke-linecap="round"/>
</svg>
