<svg width="45" height="39" viewBox="0 0 45 39" fill="none" xmlns="http://www.w3.org/2000/svg">
<path d="M19.3384 30.2631C16.4799 30.3191 13.2958 30.3191 13.0814 30.3191C11.6742 30.3191 10.7291 30.2103 10.4367 30.0235C7.74018 29.1884 5.78174 26.6782 5.78174 23.7113C5.78174 23.3818 5.80589 23.0579 5.85253 22.7414C3.55282 21.446 2 18.9838 2 16.1595C2 11.9888 5.38628 8.60778 9.56347 8.60778C10.0871 4.8827 13.2699 2 17.1269 2C20.984 2 24.1668 4.8827 24.6319 8.608C27.7429 8.60784 30.3956 10.4316 31.5851 13.0526" stroke="#33CC99" stroke-width="3" stroke-linecap="round" stroke-linejoin="round"/>
<line x1="1.5" y1="-1.5" x2="23.1253" y2="-1.5" transform="matrix(-4.37114e-08 -1 -1 4.37114e-08 16.2119 37.8825)" stroke="#33CC99" stroke-width="3" stroke-linecap="round" stroke-linejoin="round"/>
<line x1="1.5" y1="-1.5" x2="10.5651" y2="-1.5" transform="matrix(-0.714359 -0.69978 -0.69978 0.714359 17.6191 24.6904)" stroke="#33CC99" stroke-width="3" stroke-linecap="round" stroke-linejoin="round"/>
<path d="M28.6528 26.4672L32.5906 18.6793C32.9335 18.0011 33.7439 17.7054 34.443 18.0033V18.0033C35.2405 18.3432 35.7581 19.1264 35.7581 19.9934V22.5595C35.7581 23.6641 36.6535 24.5595 37.7581 24.5595H40.4983C42.3387 24.5595 43.7452 26.2013 43.4627 28.0199L42.5367 33.9823C42.234 35.9311 40.5561 37.3684 38.584 37.3684H28.6528M28.6528 26.4672H26.1055C25.0009 26.4672 24.1055 27.3626 24.1055 28.4672V35.3684C24.1055 36.473 25.0009 37.3684 26.1055 37.3684H28.6528M28.6528 26.4672V37.3684" stroke="#005E59" stroke-width="3" stroke-linecap="round"/>
</svg>
