<svg width="22" height="45" viewBox="0 0 22 45" fill="none" xmlns="http://www.w3.org/2000/svg">
<path d="M5.40154 9.87217L3.8294 8.77544V10.6923V13.4659C3.8294 14.5427 4.40592 15.4832 5.22651 16.0498C5.67417 16.3589 6.10561 16.6929 6.51763 17.0471C6.49593 17.0318 6.47418 17.0165 6.45238 17.0013L4.04906 15.3247L2.47692 14.228V16.1449V19.9147C2.47692 21.0117 3.07386 21.9674 3.91984 22.5311C4.46677 22.8957 5.01292 23.3077 5.54568 23.752C5.47765 23.7101 5.40917 23.6686 5.34028 23.6277L2.51087 21.9462L1 21.0484V22.8059V29.036C1 33.1224 4.20005 36.4099 8.30062 37.3068C8.33577 37.3145 8.36191 37.3327 8.37588 37.349C8.38198 37.3561 8.38413 37.3609 8.38462 37.3621V41.7692C8.38462 43.0013 9.38337 44 10.6154 44C11.8474 44 12.8462 43.0013 12.8462 41.7692V37.3621C12.8466 37.3609 12.8488 37.3561 12.8549 37.349C12.8689 37.3327 12.895 37.3145 12.9302 37.3068C17.0307 36.4099 20.2308 33.1224 20.2308 29.036V22.8059V21.0484L18.7199 21.9462L16.422 23.3118C16.1702 23.4615 15.9241 23.618 15.6842 23.7811C16.2403 23.3432 16.8235 22.9244 17.428 22.5103C18.2456 21.9502 18.7538 21.022 18.7538 20.0123V16.1449V14.1317L17.1496 15.3481L15.1589 16.8576C14.7106 17.1975 14.2811 17.5549 13.8715 17.9285C14.4995 17.2353 15.1849 16.586 15.8989 16.0274C16.6358 15.4507 17.1525 14.5555 17.1525 13.5374V10.6923V8.67909L15.5483 9.89549L13.9694 11.0927C12.6309 12.1076 11.499 13.3173 10.6232 14.6694C9.79308 13.3282 8.66509 12.1488 7.30762 11.2018L5.40154 9.87217Z" stroke="#005E59" stroke-width="2"/>
<path d="M6.71094 4.76923C7.92248 -0.256428 13.9802 -0.256392 15.1917 4.76923" stroke="#33CC99" stroke-width="2" stroke-linecap="round"/>
</svg>
