<svg width="45" height="45" viewBox="0 0 45 45" fill="none" xmlns="http://www.w3.org/2000/svg">
<path fill-rule="evenodd" clip-rule="evenodd" d="M22.3133 12.7218C21.957 12.421 21.4367 12.4175 21.0763 12.7135L18.0741 15.1801C13.4678 18.9645 13.5361 26.0367 18.2146 29.7315L21.0909 32.0029C21.4458 32.2832 21.9477 32.2799 22.2989 31.9949L25.1818 29.6557C29.7324 25.9632 29.7996 19.0413 25.3215 15.2611L22.3133 12.7218ZM19.3012 16.6737L21.6815 14.7181L24.0746 16.7382C27.6262 19.7363 27.5729 25.2261 23.9638 28.1546L22.7666 29.126V24.0497L24.5465 21.8679C24.8839 21.4543 24.8222 20.8455 24.4086 20.5081C23.9949 20.1706 23.3861 20.2324 23.0487 20.646L22.7666 20.9917V19.3884C22.7666 18.8546 22.3339 18.4218 21.8001 18.4218C21.2663 18.4218 20.8336 18.8546 20.8336 19.3884V23.6971C20.8335 23.7023 20.8335 23.7076 20.8336 23.7128V24.6583L20.2938 23.9966C19.9564 23.583 19.3475 23.5212 18.9339 23.8587C18.5203 24.1961 18.4585 24.8049 18.796 25.2186L20.7934 27.6671C20.8064 27.683 20.8198 27.6984 20.8336 27.7133V29.3366L19.4127 28.2145C15.7021 25.2841 15.6479 19.6752 19.3012 16.6737Z" fill="#21806D"/>
<path d="M35.1998 29.1269C34.309 30.2095 33.3444 31.2742 32.3091 32.3095C22.5168 42.1018 10.1043 45.5657 4.58502 40.0464C0.849618 36.311 1.22893 29.4182 4.89994 22.3172M39.3991 22.9408C43.3763 15.6212 43.8911 8.43052 40.046 4.5854C34.5267 -0.9339 22.1142 2.53003 12.3219 12.3223C11.2435 13.4008 10.2418 14.511 9.32038 15.6403" stroke="#33CC99" stroke-width="3" stroke-linecap="round" stroke-linejoin="round"/>
<path d="M31.2488 12.7512C36.1517 17.6541 39.4158 23.1629 40.7788 28.047C42.1561 32.9823 41.5249 36.9357 39.2303 39.2303C36.9357 41.5249 32.9823 42.1561 28.047 40.7788C23.1629 39.4158 17.6541 36.1517 12.7512 31.2488C7.84828 26.3459 4.58422 20.8371 3.22124 15.953C1.84393 11.0177 2.47511 7.06431 4.76971 4.76971C7.06431 2.47511 11.0177 1.84393 15.953 3.22124C20.8371 4.58422 26.3459 7.84828 31.2488 12.7512Z" stroke="#005E59" stroke-width="3"/>
</svg>
