<svg width="39" height="39" viewBox="0 0 39 39" fill="none" xmlns="http://www.w3.org/2000/svg">
<path d="M2 10.1665C2 13.3882 4.61167 15.9998 7.83333 15.9998C11.055 15.9998 13.6667 13.3882 13.6667 10.1665C13.6667 13.3882 16.2783 15.9998 19.5 15.9998C22.7217 15.9998 25.3333 13.3882 25.3333 10.1665C25.3333 13.3882 27.945 15.9998 31.1667 15.9998C34.3883 15.9998 37 13.3882 37 10.1665" stroke="#33CC99" stroke-width="3" stroke-linecap="round" stroke-linejoin="round"/>
<rect x="2" y="2" width="35" height="35" rx="5" stroke="#005E59" stroke-width="3"/>
<path d="M13.667 26.0001C13.667 24.3432 15.0101 23.0001 16.667 23.0001H22.3337C23.9905 23.0001 25.3337 24.3432 25.3337 26.0001V37.0001H13.667V26.0001Z" stroke="#005E59" stroke-width="3"/>
</svg>
