<svg width="42" height="43" viewBox="0 0 42 43" fill="none" xmlns="http://www.w3.org/2000/svg">
<circle cx="21" cy="21.5" r="20" stroke="#005E59" stroke-width="2"/>
<path fill-rule="evenodd" clip-rule="evenodd" d="M12 21.5C12 20.6716 12.6716 20 13.5 20H29.5C30.3284 20 31 20.6716 31 21.5C31 22.3284 30.3284 23 29.5 23H13.5C12.6716 23 12 22.3284 12 21.5Z" fill="#33CC99"/>
<path fill-rule="evenodd" clip-rule="evenodd" d="M21.5 12C22.3284 12 23 12.6716 23 13.5L23 29.5C23 30.3284 22.3284 31 21.5 31C20.6716 31 20 30.3284 20 29.5L20 13.5C20 12.6716 20.6716 12 21.5 12Z" fill="#33CC99"/>
</svg>
