<svg width="33" height="34" viewBox="0 0 33 34" fill="none" xmlns="http://www.w3.org/2000/svg">
<path fill-rule="evenodd" clip-rule="evenodd" d="M26.8668 5.44841C24.7619 3.66977 22.9325 3.41889 21.6244 3.61589C20.0554 3.85221 18.8641 5.23246 18.8559 6.63031C18.8486 7.86909 19.3815 9.72334 21.8361 11.7975C24.0403 13.66 25.7151 13.9418 26.8042 13.7987C27.9074 13.6538 28.6734 13.0412 29.026 12.5835C29.3222 12.075 29.6619 11.0635 29.5207 9.83182C29.3812 8.61554 28.7564 7.04508 26.8668 5.44841ZM21.127 0.0938782C23.4304 -0.253044 26.2249 0.307005 29.0495 2.69377C31.5677 4.82165 32.6899 7.20291 32.9434 9.41319C33.1899 11.5623 32.5999 13.4231 31.8949 14.5588C31.8728 14.5944 31.8495 14.6292 31.825 14.6631C30.9961 15.8095 29.4122 17.044 27.2392 17.3295C25.0116 17.6222 22.4181 16.8882 19.6535 14.5521C16.5497 11.9295 15.3946 9.11539 15.4093 6.60876C15.4292 3.2176 18.107 0.548736 21.127 0.0938782Z" fill="#00866D"/>
<path fill-rule="evenodd" clip-rule="evenodd" d="M21.6753 7.57079C20.412 6.73263 19.0855 6.12459 18.2868 5.83374C17.3892 5.50688 16.9182 4.49049 17.2347 3.56356C17.5512 2.63664 18.5355 2.15019 19.433 2.47705C20.4556 2.84944 22.027 3.57355 23.5384 4.57633C25.0111 5.55351 26.6475 6.93877 27.52 8.71185C27.9512 9.58806 27.6129 10.6593 26.7645 11.1046C25.916 11.5499 24.8786 11.2006 24.4474 10.3244C23.992 9.39904 22.9771 8.43456 21.6753 7.57079Z" fill="#00866D"/>
<path fill-rule="evenodd" clip-rule="evenodd" d="M6.13358 21.3912C8.2385 19.6126 10.068 19.3617 11.376 19.5587C12.945 19.795 14.1363 21.1753 14.1445 22.5731C14.1518 23.8119 13.6189 25.6661 11.1643 27.7403C8.9601 29.6028 7.28536 29.8846 6.19623 29.7415C5.09303 29.5966 4.32699 28.984 3.97441 28.5263C3.67827 28.0178 3.33849 27.0063 3.47975 25.7746C3.61925 24.5583 4.24401 22.9879 6.13358 21.3912ZM11.8734 16.0367C9.57006 15.6898 6.77553 16.2498 3.95093 18.6366C1.43271 20.7645 0.310534 23.1457 0.0570348 25.356C-0.189455 27.5051 0.40056 29.3659 1.10548 30.5016C1.1276 30.5372 1.15094 30.572 1.17546 30.6059C2.00432 31.7523 3.58821 32.9869 5.76122 33.2724C7.98884 33.565 10.5824 32.831 13.347 30.4949C16.4507 27.8723 17.6058 25.0582 17.5911 22.5516C17.5712 19.1604 14.8934 16.4915 11.8734 16.0367Z" fill="#33CC99"/>
<path fill-rule="evenodd" clip-rule="evenodd" d="M11.3251 23.5136C12.5884 22.6754 13.9149 22.0674 14.7136 21.7766C15.6112 21.4497 16.0822 20.4333 15.7657 19.5064C15.4492 18.5794 14.465 18.093 13.5674 18.4199C12.5448 18.7922 10.9734 19.5164 9.46206 20.5191C7.98931 21.4963 6.35296 22.8816 5.48041 24.6547C5.04921 25.5309 5.38749 26.6022 6.23597 27.0474C7.08446 27.4927 8.12184 27.1434 8.55304 26.2672C9.00842 25.3418 10.0233 24.3774 11.3251 23.5136Z" fill="#33CC99"/>
</svg>
