<svg width="46" height="36" viewBox="0 0 46 36" fill="none" xmlns="http://www.w3.org/2000/svg">
<path fill-rule="evenodd" clip-rule="evenodd" d="M28.6821 3.12394C28.6002 3.12394 28.52 3.14804 28.451 3.19392C24.807 5.61593 18.8476 9.4922 17.247 10.5323C16.7733 10.8401 16.228 10.9977 15.6713 10.9977H2.9009C2.67203 10.9977 2.48649 11.1833 2.48649 11.4122V12.6555H16.109C16.1854 12.6555 16.2604 12.6343 16.3256 12.5944L28.3751 5.20918C28.8313 4.92958 29.3559 4.7816 29.891 4.7816H43.5135V3.53835C43.5135 3.30948 43.328 3.12394 43.0991 3.12394H28.6821ZM43.5135 7.26808H29.891C29.8146 7.26808 29.7396 7.28922 29.6744 7.32917L17.6249 14.7144C17.1687 14.994 16.6441 15.142 16.109 15.142H2.48649V21.7726H17.4054V24.2591H2.48649V27.1599C2.48649 27.3888 2.67203 27.5743 2.9009 27.5743H19.8919V30.0608H2.9009C1.29878 30.0608 0 28.762 0 27.1599V11.4122C0 9.81003 1.29878 8.51125 2.9009 8.51125H15.6713C15.7553 8.51125 15.8286 8.48865 15.8922 8.44736C17.4949 7.40589 23.4433 3.53675 27.0746 1.12313C27.5507 0.806706 28.1095 0.637451 28.6821 0.637451H43.0991C44.7012 0.637451 46 1.93623 46 3.53835V27.1599C46 28.762 44.7012 30.0608 43.0991 30.0608H31.9099V27.5743H43.0991C43.328 27.5743 43.5135 27.3888 43.5135 27.1599V18.6644H31.9099V16.178H43.5135V7.26808Z" fill="#005E59"/>
<path fill-rule="evenodd" clip-rule="evenodd" d="M26.1077 16.3852C22.2168 16.3852 19.0627 19.5393 19.0627 23.4302C19.0627 27.3211 22.2168 30.4753 26.1077 30.4753C29.9986 30.4753 33.1527 27.3211 33.1527 23.4302C33.1527 19.5393 29.9986 16.3852 26.1077 16.3852ZM16.5762 23.4302C16.5762 18.1661 20.8436 13.8987 26.1077 13.8987C31.3718 13.8987 35.6392 18.1661 35.6392 23.4302C35.6392 28.6943 31.3718 32.9617 26.1077 32.9617C20.8436 32.9617 16.5762 28.6943 16.5762 23.4302Z" fill="#33CC99"/>
<path fill-rule="evenodd" clip-rule="evenodd" d="M21.1852 28.7673C21.6707 29.2529 21.6707 30.04 21.1852 30.5255L16.2122 35.4985C15.7267 35.984 14.9395 35.984 14.454 35.4985C13.9685 35.013 13.9685 34.2258 14.454 33.7403L19.427 28.7673C19.9125 28.2818 20.6996 28.2818 21.1852 28.7673Z" fill="#33CC99"/>
<path d="M6.21625 19.2861C6.21625 19.7439 5.84517 20.1149 5.38742 20.1149C4.92967 20.1149 4.55859 19.7439 4.55859 19.2861C4.55859 18.8284 4.92967 18.4573 5.38742 18.4573C5.84517 18.4573 6.21625 18.8284 6.21625 19.2861Z" fill="#005E59"/>
<path d="M31.9096 10.9978C31.9096 11.4555 31.5385 11.8266 31.0808 11.8266C30.623 11.8266 30.252 11.4555 30.252 10.9978C30.252 10.54 30.623 10.1689 31.0808 10.1689C31.5385 10.1689 31.9096 10.54 31.9096 10.9978Z" fill="#005E59"/>
<path d="M13.6752 17.6284C13.6752 18.0861 13.3042 18.4572 12.8464 18.4572C12.3887 18.4572 12.0176 18.0861 12.0176 17.6284C12.0176 17.1706 12.3887 16.7996 12.8464 16.7996C13.3042 16.7996 13.6752 17.1706 13.6752 17.6284Z" fill="#005E59"/>
<path d="M39.3696 10.1689C39.3696 10.6267 38.9985 10.9977 38.5407 10.9977C38.083 10.9977 37.7119 10.6267 37.7119 10.1689C37.7119 9.71117 38.083 9.34009 38.5407 9.34009C38.9985 9.34009 39.3696 9.71117 39.3696 10.1689Z" fill="#005E59"/>
</svg>
