<svg width="65" height="46" viewBox="0 0 65 46" fill="none" xmlns="http://www.w3.org/2000/svg">
<path d="M28.231 10.7692V2L36.5386 10.7692V2" stroke="#005E59" stroke-width="3" stroke-linecap="round" stroke-linejoin="round"/>
<line x1="42.8293" y1="10.0568" x2="45.5938" y2="11.6529" stroke="#005E59" stroke-width="3" stroke-linecap="round"/>
<line x1="42.8293" y1="10.0568" x2="45.5938" y2="11.6529" stroke="#005E59" stroke-width="3" stroke-linecap="round"/>
<line x1="34.7961" y1="39.2105" x2="45.0881" y2="33.2685" stroke="#005E59" stroke-width="3" stroke-linecap="round"/>
<line x1="52.3181" y1="10.6238" x2="62.6101" y2="4.68173" stroke="#005E59" stroke-width="3" stroke-linecap="round"/>
<line x1="1.54904" y1="40.1623" x2="11.841" y2="34.2202" stroke="#005E59" stroke-width="3" stroke-linecap="round"/>
<line x1="1.5" y1="-1.5" x2="4.69219" y2="-1.5" transform="matrix(-0.866025 0.5 0.5 0.866025 23.9009 10.6058)" stroke="#005E59" stroke-width="3" stroke-linecap="round"/>
<line x1="29.3958" y1="39.0392" x2="19.1037" y2="33.0971" stroke="#005E59" stroke-width="3" stroke-linecap="round"/>
<line x1="49.5771" y1="16.8846" x2="49.5771" y2="29.577" stroke="#005E59" stroke-width="3" stroke-linecap="round"/>
<line x1="15.4229" y1="16.8846" x2="15.4229" y2="29.577" stroke="#005E59" stroke-width="3" stroke-linecap="round"/>
<circle cx="49.0002" cy="12.6154" r="2.76923" stroke="#33CC99" stroke-width="3" stroke-linecap="round"/>
<circle cx="15.7692" cy="12.6154" r="2.76923" stroke="#33CC99" stroke-width="3" stroke-linecap="round"/>
<circle cx="49.0002" cy="32.923" r="2.76923" stroke="#33CC99" stroke-width="3" stroke-linecap="round"/>
<circle cx="15.7692" cy="32.923" r="2.76923" stroke="#33CC99" stroke-width="3" stroke-linecap="round"/>
<circle cx="32.3845" cy="41.2307" r="2.76923" stroke="#33CC99" stroke-width="3" stroke-linecap="round"/>
</svg>
