<svg width="40" height="41" viewBox="0 0 40 41" fill="none" xmlns="http://www.w3.org/2000/svg">
<path d="M23 28L25.5 28.5166C26.443 28.8302 27.4517 29 28.5 29C33.7467 29 38 24.7468 38 19.5C38 14.4028 33.9858 10.2432 28.9462 10.0103C28.4535 5.50537 24.6361 2 20 2C15.3639 2 11.5465 5.50537 11.0538 10.0103C6.01422 10.2432 2 14.4028 2 19.5C2 24.7468 6.2533 29 11.5 29C12.5483 29 13.557 28.8302 14.5 28.5166L16 28" stroke="#33CC99" stroke-width="3"/>
<path d="M14.7519 13.3321C15.2115 14.0213 16.1428 14.2076 16.8321 13.7481C17.5213 13.2885 17.7076 12.3572 17.2481 11.6679L14.7519 13.3321ZM17.2481 11.6679C16.0176 9.82223 14.0819 8.5 11.5 8.5V11.5C12.9181 11.5 13.9824 12.1778 14.7519 13.3321L17.2481 11.6679Z" fill="#33CC99"/>
<path d="M26.0927 13.8151C25.5133 14.4072 25.5235 15.3569 26.1155 15.9363C26.7076 16.5158 27.6573 16.5056 28.2367 15.9135L26.0927 13.8151ZM28.2367 15.9135C29.8589 14.2561 30.5 12.374 30.5 10.5L27.5 10.5C27.5 11.626 27.1412 12.7439 26.0927 13.8151L28.2367 15.9135Z" fill="#33CC99"/>
<path fill-rule="evenodd" clip-rule="evenodd" d="M19 41L19 27L22 27L22 41L19 41Z" fill="#00866D"/>
<path d="M22.4574 22.9052L22.5968 22.5409C23.7103 19.6308 22.8328 16.316 20.4452 14.3142V14.3142C20.1632 14.0778 19.7508 14.0711 19.4638 14.3014V14.3014C16.9885 16.288 16.1753 19.7001 17.4885 22.5896L17.6319 22.9052" stroke="#00866D" stroke-width="3"/>
<path d="M21.1001 27.3687V29L22.9314 28.3459C26.1054 27.2124 28.38 24.4005 28.8255 21.0597L28.9322 20.2595C29.0149 19.6389 28.4666 19.1188 27.8512 19.2342C23.9367 19.9681 21.1001 23.386 21.1001 27.3687Z" stroke="#00866D" stroke-width="3"/>
<path d="M19 27.3687V29L17.1687 28.3459C13.9947 27.2124 11.7201 24.4005 11.2746 21.0597L11.1679 20.2595C11.0852 19.6389 11.6335 19.1188 12.2489 19.2342C16.1634 19.9681 19 23.386 19 27.3687Z" stroke="#00866D" stroke-width="3"/>
</svg>
