<svg width="17" height="17" viewBox="0 0 17 17" fill="none" xmlns="http://www.w3.org/2000/svg">
<rect x="1" y="1" width="15" height="15" rx="3" fill="#005E59" stroke="#005E59" stroke-width="2"/>
<path d="M6.22 5.008C6.22 4.42 5.764 4 5.104 4C4.456 4 4 4.42 4 5.008C4 5.572 4.456 5.992 5.104 5.992C5.764 5.992 6.22 5.572 6.22 5.008ZM5.956 12.904V6.496H4.288V12.904H5.956Z" fill="white"/>
<path d="M9.10834 9.412C9.10834 8.38 9.67234 7.852 10.3323 7.852C11.0883 7.852 11.4603 8.38 11.4603 9.328V12.904H13.1163V8.764C13.1163 7.216 12.2283 6.376 10.9443 6.376C10.1043 6.376 9.44434 6.772 8.97634 7.408V6.496H7.44034V12.904H9.10834V9.412Z" fill="white"/>
</svg>
