<svg width="24" height="24" viewBox="0 0 24 24" fill="none" xmlns="http://www.w3.org/2000/svg">
<path d="M0 12C0 5.37258 5.37258 0 12 0C18.6274 0 24 5.37258 24 12C24 18.6274 18.6274 24 12 24C5.37258 24 0 18.6274 0 12Z" fill="#F5F5F5"/>
<path d="M12.0017 6.09783C13.9256 6.09783 14.1514 6.10641 14.9119 6.14071C15.6151 6.17216 15.9953 6.28936 16.2497 6.38942C16.587 6.52091 16.8272 6.67528 17.0787 6.92684C17.3303 7.1784 17.4875 7.41853 17.6161 7.75585C17.7133 8.01027 17.8334 8.39047 17.8648 9.0937C17.8991 9.8541 17.9077 10.0799 17.9077 12.0038C17.9077 13.9277 17.8991 14.1535 17.8648 14.9139C17.8334 15.6172 17.7162 15.9974 17.6161 16.2518C17.4846 16.5891 17.3303 16.8292 17.0787 17.0808C16.8272 17.3323 16.587 17.4896 16.2497 17.6182C15.9953 17.7154 15.6151 17.8355 14.9119 17.8669C14.1514 17.9012 13.9256 17.9098 12.0017 17.9098C10.0779 17.9098 9.85203 17.9012 9.09163 17.8669C8.3884 17.8355 8.00819 17.7183 7.75377 17.6182C7.41645 17.4867 7.17633 17.3323 6.92476 17.0808C6.6732 16.8292 6.51598 16.5891 6.38734 16.2518C6.29014 15.9974 6.17008 15.6172 6.13863 14.9139C6.10433 14.1535 6.09575 13.9277 6.09575 12.0038C6.09575 10.0799 6.10433 9.8541 6.13863 9.0937C6.17008 8.39047 6.28728 8.01027 6.38734 7.75585C6.51883 7.41853 6.6732 7.1784 6.92476 6.92684C7.17633 6.67528 7.41645 6.51805 7.75377 6.38942C8.00819 6.29222 8.3884 6.17216 9.09163 6.14071C9.85203 6.10355 10.0807 6.09783 12.0017 6.09783ZM12.0017 4.8C10.0464 4.8 9.80057 4.80858 9.03159 4.84288C8.26547 4.87719 7.74234 5.00011 7.28495 5.17735C6.81042 5.3603 6.41021 5.609 6.00999 6.00921C5.60978 6.40943 5.36394 6.8125 5.17812 7.28417C5.00089 7.74156 4.87796 8.26469 4.84366 9.03367C4.80936 9.79979 4.80078 10.0456 4.80078 12.001C4.80078 13.9563 4.80936 14.2021 4.84366 14.9711C4.87796 15.7372 5.00089 16.2604 5.17812 16.7206C5.36108 17.1951 5.60978 17.5953 6.00999 17.9956C6.41021 18.3958 6.81328 18.6416 7.28495 18.8274C7.74234 19.0047 8.26547 19.1276 9.03445 19.1619C9.80343 19.1962 10.0464 19.2048 12.0046 19.2048C13.9628 19.2048 14.2058 19.1962 14.9747 19.1619C15.7409 19.1276 16.264 19.0047 16.7242 18.8274C17.1988 18.6445 17.599 18.3958 17.9992 17.9956C18.3994 17.5953 18.6453 17.1923 18.8311 16.7206C19.0083 16.2632 19.1312 15.7401 19.1655 14.9711C19.1998 14.2021 19.2084 13.9591 19.2084 12.001C19.2084 10.0428 19.1998 9.79979 19.1655 9.03081C19.1312 8.26469 19.0083 7.74156 18.8311 7.28132C18.6481 6.80678 18.3994 6.40657 17.9992 6.00636C17.599 5.60614 17.1959 5.3603 16.7242 5.17449C16.2669 4.99725 15.7437 4.87433 14.9747 4.84002C14.2029 4.80858 13.9571 4.8 12.0017 4.8Z" fill="#00866D"/>
<path d="M12.0018 8.3047C9.96075 8.3047 8.30273 9.95986 8.30273 12.0038C8.30273 14.0477 9.9579 15.7029 12.0018 15.7029C14.0458 15.7029 15.7009 14.0477 15.7009 12.0038C15.7009 9.95986 14.0458 8.3047 12.0018 8.3047ZM12.0018 14.4022C10.6754 14.4022 9.60056 13.3274 9.60056 12.0009C9.60056 10.6745 10.6754 9.59967 12.0018 9.59967C13.3282 9.59967 14.4031 10.6745 14.4031 12.0009C14.4031 13.3274 13.3282 14.4022 12.0018 14.4022Z" fill="#00866D"/>
<path d="M15.8467 9.01937C16.3235 9.01937 16.71 8.63285 16.71 8.15605C16.71 7.67926 16.3235 7.29274 15.8467 7.29274C15.3699 7.29274 14.9834 7.67926 14.9834 8.15605C14.9834 8.63285 15.3699 9.01937 15.8467 9.01937Z" fill="#00866D"/>
</svg>
