<svg width="12" height="12" viewBox="0 0 12 12" fill="none" xmlns="http://www.w3.org/2000/svg">
<path fill-rule="evenodd" clip-rule="evenodd" d="M6 1.875C4.26199 1.875 2.875 3.23363 2.875 4.88297C2.875 5.88527 3.28546 6.74967 4.01767 7.28801C4.17905 7.40666 4.31711 7.58361 4.36998 7.80811C4.41338 7.99235 4.46304 8.21685 4.51223 8.45477H7.48776C7.53696 8.21685 7.58662 7.99235 7.63002 7.80811C7.68289 7.58361 7.82095 7.40666 7.98233 7.28801C8.71454 6.74967 9.125 5.88527 9.125 4.88297C9.125 3.23363 7.73801 1.875 6 1.875ZM7.34436 9.20477H4.65564C4.71084 9.52356 4.75415 9.82547 4.76727 10.0422C4.78107 10.2704 4.95163 10.4749 5.20311 10.5293L5.30109 10.5504C5.76131 10.6499 6.23869 10.6499 6.69891 10.5504L6.79689 10.5293C7.04837 10.4749 7.21892 10.2704 7.23273 10.0422C7.24584 9.82547 7.28915 9.52356 7.34436 9.20477ZM2.125 4.88297C2.125 2.79558 3.87202 1.125 6 1.125C8.12798 1.125 9.875 2.79558 9.875 4.88297C9.875 6.0949 9.37321 7.19629 8.4266 7.89227C8.38342 7.92401 8.36537 7.95742 8.36004 7.98005C8.30085 8.23137 8.22875 8.56399 8.163 8.90147C8.07161 9.37059 7.99721 9.82562 7.98136 10.0875C7.94633 10.6666 7.5203 11.1403 6.95528 11.2623L6.85729 11.2835C6.29269 11.4055 5.70731 11.4055 5.14271 11.2835L5.04472 11.2623C4.4797 11.1403 4.05367 10.6666 4.01864 10.0875C4.00279 9.82562 3.92839 9.37059 3.837 8.90147C3.77125 8.56399 3.69915 8.23137 3.63996 7.98005C3.63463 7.95742 3.61658 7.92401 3.5734 7.89227C2.62678 7.19629 2.125 6.0949 2.125 4.88297Z" fill="#00866D"/>
</svg>
