<svg width="20" height="20" viewBox="0 0 20 20" fill="none" xmlns="http://www.w3.org/2000/svg">
<path fill-rule="evenodd" clip-rule="evenodd" d="M10 0C4.47715 0 0 4.47715 0 10C0 15.5228 4.47715 20 10 20C15.5228 20 20 15.5228 20 10C20 4.47715 15.5228 0 10 0ZM13.0615 2.60896C12.0909 2.20693 11.0506 2 10 2V10V18C11.0506 18 12.0909 17.7931 13.0615 17.391C14.0321 16.989 14.914 16.3997 15.6569 15.6569C16.3997 14.914 16.989 14.0321 17.391 13.0615C17.7931 12.0909 18 11.0506 18 10C18 8.94942 17.7931 7.90914 17.391 6.93853C16.989 5.96793 16.3997 5.08601 15.6569 4.34315C14.914 3.60028 14.0321 3.011 13.0615 2.60896Z" fill="#00866D"/>
</svg>
