<svg width="129" height="40" viewBox="0 0 129 40" fill="none" xmlns="http://www.w3.org/2000/svg">
<path fill-rule="evenodd" clip-rule="evenodd" d="M0 0.171509C0 0.0767871 0.0767871 0 0.171509 0H13.4792C13.5739 0 13.6507 0.0767871 13.6507 0.171509V2.30617C13.6507 2.4009 13.5739 2.47768 13.4792 2.47768H2.44423V17.6046C2.44423 17.6993 2.36745 17.7761 2.27273 17.7761H0.171509C0.0767871 17.7761 0 17.6993 0 17.6046V0.171509ZM0.343018 0.343018V17.4331H2.10122V2.30617C2.10122 2.21145 2.178 2.13466 2.27273 2.13466H13.3077V0.343018H0.343018Z" fill="#5AB88F"/>
<path fill-rule="evenodd" clip-rule="evenodd" d="M19.8128 2.28623H17.3384V0.171387H19.8128C30.9407 0.171387 39.9615 9.16645 39.9615 20.2624V39.296L37.8406 37.1812V20.2624C37.8406 10.3344 29.7693 2.28623 19.8128 2.28623Z" fill="#5AB88F"/>
<path fill-rule="evenodd" clip-rule="evenodd" d="M17.1673 0.171509C17.1673 0.0767871 17.2441 0 17.3388 0H19.8132C31.0353 0 40.1334 9.07139 40.1334 20.2626V39.2962C40.1334 39.3655 40.0917 39.428 40.0277 39.4546C39.9636 39.4811 39.8899 39.4666 39.8408 39.4176L37.7199 37.3028C37.6876 37.2706 37.6695 37.2269 37.6695 37.1813V20.2626C37.6695 10.4298 29.6754 2.45786 19.8132 2.45786H17.3388C17.2441 2.45786 17.1673 2.38108 17.1673 2.28636V0.171509ZM17.5103 0.343018V2.11485H19.8132C29.8639 2.11485 38.0125 10.2394 38.0125 20.2626V37.1101L39.7904 38.8829V20.2626C39.7904 9.26176 30.8468 0.343018 19.8132 0.343018H17.5103Z" fill="#5AB88F"/>
<path fill-rule="evenodd" clip-rule="evenodd" d="M19.9877 39.8285C9.82218 39.8285 1.22448 31.8907 0.171265 21.73H2.3413C3.28276 30.8126 10.9008 37.7121 19.9877 37.7121H32.5323L34.6382 39.8285H19.9877Z" fill="#5AB88F"/>
<path fill-rule="evenodd" clip-rule="evenodd" d="M0.0441359 21.6152C0.0766576 21.5792 0.122945 21.5586 0.17151 21.5586H2.34155C2.42942 21.5586 2.50308 21.625 2.51214 21.7124C3.44461 30.7083 10.9896 37.5407 19.988 37.5407H32.5325C32.5782 37.5407 32.6219 37.5589 32.6541 37.5913L34.76 39.7076C34.8089 39.7567 34.8234 39.8304 34.7968 39.8944C34.7702 39.9584 34.7078 40.0001 34.6385 40.0001H19.988C9.7321 40.0001 1.06293 31.9934 0.000914781 21.7478C-0.00409234 21.6995 0.0116142 21.6513 0.0441359 21.6152ZM0.362623 21.9016C1.49345 31.8865 9.97591 39.6571 19.988 39.6571H34.2258L32.4612 37.8838H19.988C10.8639 37.8838 3.20759 30.9949 2.18755 21.9016H0.362623Z" fill="#5AB88F"/>
<path fill-rule="evenodd" clip-rule="evenodd" d="M5.62762 5.62744H19.8669V7.77331H7.71142V11.3498H5.62762V5.62744Z" fill="#5AB88F"/>
<path fill-rule="evenodd" clip-rule="evenodd" d="M5.45636 5.62756C5.45636 5.53284 5.53315 5.45605 5.62787 5.45605H19.8671C19.9618 5.45605 20.0386 5.53284 20.0386 5.62756V7.77343C20.0386 7.86815 19.9618 7.94494 19.8671 7.94494H7.88317V11.3499C7.88317 11.4446 7.80638 11.5214 7.71166 11.5214H5.62787C5.53315 11.5214 5.45636 11.4446 5.45636 11.3499V5.62756ZM5.79938 5.79907V11.1784H7.54015V7.77343C7.54015 7.67871 7.61694 7.60192 7.71166 7.60192H19.6956V5.79907H5.79938Z" fill="#5AB88F"/>
<path fill-rule="evenodd" clip-rule="evenodd" d="M31.7912 19.2242C31.7912 13.0408 26.7419 7.7697 20.5134 7.7697H19.8654V5.62744H20.5134C27.9098 5.62744 33.9057 11.8814 33.9057 19.2242V30.6853L36.7679 33.5268L37.8419 34.644V37.1777L36.8127 36.2891L28.5338 28.321H20.161C15.2949 28.321 11.3502 24.4049 11.3502 19.5741V11.177H19.4561C24.3222 11.177 28.2669 15.0931 28.2669 19.924V25.0872L31.7912 28.586V19.2242ZM26.1523 22.988V19.924C26.1523 16.2525 23.1543 13.2763 19.4561 13.2763H13.4648V19.5741C13.4648 23.2455 16.4628 26.2218 20.161 26.2218H26.4192L19.4561 19.1818H22.3183L26.1523 22.988Z" fill="#5AB88F"/>
<path fill-rule="evenodd" clip-rule="evenodd" d="M19.6935 5.62756C19.6935 5.53284 19.7703 5.45605 19.865 5.45605H20.513C28.0079 5.45605 34.0769 11.7906 34.0769 19.2243V30.614L36.8913 33.408L37.9652 34.5252C37.9959 34.5572 38.013 34.5998 38.013 34.6441V37.1779C38.013 37.245 37.9739 37.3059 37.9129 37.3338C37.8519 37.3617 37.7802 37.3515 37.7294 37.3077L36.6932 36.413L28.4643 28.4927H20.1606C15.201 28.4927 11.1783 24.5009 11.1783 19.5742V11.1771C11.1783 11.0824 11.2551 11.0056 11.3499 11.0056H19.4557C24.4153 11.0056 28.438 14.9974 28.438 19.9241V25.016L31.6193 28.1742V19.2243C31.6193 13.1317 26.643 7.94133 20.513 7.94133H19.865C19.7703 7.94133 19.6935 7.86454 19.6935 7.76982V5.62756ZM20.0366 5.79907V7.59831H20.513C26.8402 7.59831 31.9623 12.9501 31.9623 19.2243V28.5861C31.9623 28.6554 31.9207 28.7179 31.8567 28.7445C31.7928 28.7711 31.7191 28.7566 31.67 28.7079L28.1457 25.2091C28.1132 25.1769 28.095 25.1331 28.095 25.0874V19.9241C28.095 15.1892 24.2282 11.3486 19.4557 11.3486H11.5214V19.5742C11.5214 24.3091 15.3881 28.1497 20.1606 28.1497H28.5334C28.5778 28.1497 28.6204 28.1668 28.6523 28.1976L36.9279 36.1624L37.67 36.8032V34.7132L36.6453 33.6472L33.7845 30.8071C33.7521 30.7749 33.7339 30.7311 33.7339 30.6854V19.2243C33.7339 11.9724 27.8109 5.79907 20.513 5.79907H20.0366ZM13.2929 13.2764C13.2929 13.1817 13.3697 13.1049 13.4644 13.1049H19.4557C23.2475 13.1049 26.3234 16.1568 26.3234 19.9241V22.9881C26.3234 23.0573 26.2818 23.1198 26.2178 23.1464C26.1539 23.173 26.0802 23.1586 26.0311 23.1098L22.2473 19.3534H19.8666L26.5408 26.1013C26.5894 26.1505 26.6038 26.2241 26.5771 26.288C26.5505 26.3518 26.488 26.3934 26.4188 26.3934H20.1606C16.3689 26.3934 13.2929 23.3415 13.2929 19.5742V13.2764ZM13.6359 13.4479V19.5742C13.6359 23.1497 16.556 26.0504 20.1606 26.0504H26.008L19.3338 19.3025C19.2851 19.2533 19.2708 19.1797 19.2975 19.1158C19.3241 19.052 19.3865 19.0104 19.4557 19.0104H22.3179C22.3632 19.0104 22.4066 19.0283 22.4388 19.0602L25.9804 22.5762V19.9241C25.9804 16.3486 23.0604 13.4479 19.4557 13.4479H13.6359Z" fill="#5AB88F"/>
<path fill-rule="evenodd" clip-rule="evenodd" d="M5.62762 20.595V14.9429H7.71316V20.595C7.71316 27.0333 12.8487 32.2526 19.1836 32.2526H26.8306L28.9161 34.3721H19.1836C11.6968 34.3721 5.62762 28.2039 5.62762 20.595Z" fill="#5AB88F"/>
<path fill-rule="evenodd" clip-rule="evenodd" d="M5.45636 14.943C5.45636 14.8483 5.53315 14.7715 5.62787 14.7715H7.71341C7.80813 14.7715 7.88491 14.8483 7.88491 14.943V20.5951C7.88491 26.9413 12.9462 32.0812 19.1839 32.0812H26.8308C26.8768 32.0812 26.9208 32.0996 26.9531 32.1324L29.0386 34.252C29.0871 34.3012 29.1013 34.3748 29.0745 34.4385C29.0478 34.5023 28.9855 34.5438 28.9164 34.5438H19.1839C11.5998 34.5438 5.45636 28.2961 5.45636 20.5951V14.943ZM5.79938 15.1145V20.5951C5.79938 28.1119 11.7944 34.2007 19.1839 34.2007H28.507L26.759 32.4242H19.1839C12.7516 32.4242 7.5419 27.1255 7.5419 20.5951V15.1145H5.79938Z" fill="#5AB88F"/>
<path fill-rule="evenodd" clip-rule="evenodd" d="M0.171265 0.171387H13.479V2.30605H2.27248V17.6045H0.171265V0.171387Z" fill="#5AB88F"/>
<path d="M58.2953 5.01514H54.1334V29.5585C54.1334 32.5896 56.5905 35.0468 59.6216 35.0468H68.334V30.6707H61.7255C60.2099 30.6707 58.9813 29.4422 58.9813 27.9266V5.70117C58.9813 5.32229 58.6742 5.01514 58.2953 5.01514Z" fill="#F5F5F5"/>
<path fill-rule="evenodd" clip-rule="evenodd" d="M75.6546 26.6273H90.3986C90.9147 22.6955 89.7204 14.832 80.815 14.832C71.9096 14.832 70.4204 22.6955 70.789 26.6273C71.1576 29.4041 73.6789 34.9577 80.815 34.9577C87.9511 34.9577 90.1775 30.5345 90.3986 28.3229H86.1966C85.5331 29.1584 84.0587 30.8294 80.815 30.8294C77.5713 30.8294 75.6546 28.3229 75.6546 26.6273ZM75.5071 23.3099H85.9017C85.6068 21.9338 84.1914 19.1816 80.8887 19.1816C77.586 19.1816 75.9249 21.9338 75.5071 23.3099Z" fill="#F5F5F5"/>
<path fill-rule="evenodd" clip-rule="evenodd" d="M109.05 18.2232C108.583 17.1174 106.529 14.9058 102.047 14.9058C96.4441 14.9058 91.8734 20.4348 93.569 28.028C95.2646 35.6212 104.701 37.1693 109.05 31.8615V35.0315H113.99V14.9058H109.05V18.2232ZM103.411 30.5345C106.444 30.5345 108.903 28.0096 108.903 24.8949C108.903 21.7803 106.444 19.2553 103.411 19.2553C100.377 19.2553 97.9185 21.7803 97.9185 24.8949C97.9185 28.0096 100.377 30.5345 103.411 30.5345Z" fill="#F5F5F5"/>
<path d="M123.378 34.9828H118.673V12.4995C118.673 8.33176 122.052 4.95312 126.22 4.95312H128.88V9.37638H126.808C124.913 9.37638 123.378 10.9121 123.378 12.8066V14.9054H127.627V18.6652H123.378V34.9828Z" fill="#F5F5F5"/>
</svg>
