<svg width="129" height="40" viewBox="0 0 129 40" fill="none" xmlns="http://www.w3.org/2000/svg">
<path fill-rule="evenodd" clip-rule="evenodd" d="M0 0.171509C0 0.0767871 0.0767871 0 0.171509 0H13.4792C13.5739 0 13.6507 0.0767871 13.6507 0.171509V2.30617C13.6507 2.4009 13.5739 2.47768 13.4792 2.47768H2.44423V17.6046C2.44423 17.6993 2.36745 17.7761 2.27273 17.7761H0.171509C0.0767871 17.7761 0 17.6993 0 17.6046V0.171509ZM0.343018 0.343018V17.4331H2.10122V2.30617C2.10122 2.21145 2.178 2.13466 2.27273 2.13466H13.3077V0.343018H0.343018Z" fill="#005E59"/>
<path fill-rule="evenodd" clip-rule="evenodd" d="M19.8133 2.28623H17.3389V0.171387H19.8133C30.9411 0.171387 39.962 9.16645 39.962 20.2624V39.296L37.8411 37.1812V20.2624C37.8411 10.3344 29.7697 2.28623 19.8133 2.28623Z" fill="#00866D"/>
<path fill-rule="evenodd" clip-rule="evenodd" d="M17.167 0.171509C17.167 0.0767871 17.2438 0 17.3385 0H19.8129C31.035 0 40.1331 9.07139 40.1331 20.2626V39.2962C40.1331 39.3655 40.0914 39.428 40.0273 39.4546C39.9633 39.4811 39.8896 39.4666 39.8405 39.4176L37.7196 37.3028C37.6873 37.2706 37.6692 37.2269 37.6692 37.1813V20.2626C37.6692 10.4298 29.6751 2.45786 19.8129 2.45786H17.3385C17.2438 2.45786 17.167 2.38108 17.167 2.28636V0.171509ZM17.51 0.343018V2.11485H19.8129C29.8636 2.11485 38.0122 10.2394 38.0122 20.2626V37.1101L39.7901 38.8829V20.2626C39.7901 9.26176 30.8465 0.343018 19.8129 0.343018H17.51Z" fill="#00866D"/>
<path fill-rule="evenodd" clip-rule="evenodd" d="M19.9874 39.8285C9.82182 39.8285 1.22411 31.8907 0.170898 21.73H2.34094C3.2824 30.8126 10.9004 37.7121 19.9874 37.7121H32.5319L34.6379 39.8285H19.9874Z" fill="#00866D"/>
<path fill-rule="evenodd" clip-rule="evenodd" d="M0.0441359 21.6152C0.0766576 21.5792 0.122945 21.5586 0.17151 21.5586H2.34155C2.42942 21.5586 2.50308 21.625 2.51214 21.7124C3.44461 30.7083 10.9896 37.5407 19.988 37.5407H32.5325C32.5782 37.5407 32.6219 37.5589 32.6541 37.5913L34.76 39.7076C34.8089 39.7567 34.8234 39.8304 34.7968 39.8944C34.7702 39.9584 34.7078 40.0001 34.6385 40.0001H19.988C9.7321 40.0001 1.06293 31.9934 0.000914781 21.7478C-0.00409234 21.6995 0.0116142 21.6513 0.0441359 21.6152ZM0.362623 21.9016C1.49345 31.8865 9.97591 39.6571 19.988 39.6571H34.2258L32.4612 37.8838H19.988C10.8639 37.8838 3.20759 30.9949 2.18755 21.9016H0.362623Z" fill="#00866D"/>
<path fill-rule="evenodd" clip-rule="evenodd" d="M5.62793 5.62744H19.8672V7.77331H7.71172V11.3498H5.62793V5.62744Z" fill="#00866D"/>
<path fill-rule="evenodd" clip-rule="evenodd" d="M5.45605 5.62756C5.45605 5.53284 5.53284 5.45605 5.62756 5.45605H19.8668C19.9615 5.45605 20.0383 5.53284 20.0383 5.62756V7.77343C20.0383 7.86815 19.9615 7.94494 19.8668 7.94494H7.88286V11.3499C7.88286 11.4446 7.80608 11.5214 7.71136 11.5214H5.62756C5.53284 11.5214 5.45605 11.4446 5.45605 11.3499V5.62756ZM5.79907 5.79907V11.1784H7.53985V7.77343C7.53985 7.67871 7.61663 7.60192 7.71136 7.60192H19.6953V5.79907H5.79907Z" fill="#00866D"/>
<path fill-rule="evenodd" clip-rule="evenodd" d="M31.7915 19.2242C31.7915 13.0408 26.7423 7.7697 20.5138 7.7697H19.8658V5.62744H20.5138C27.9102 5.62744 33.9061 11.8814 33.9061 19.2242V30.6853L36.7683 33.5268L37.8422 34.644V37.1777L36.8131 36.2891L28.5341 28.321H20.1613C15.2953 28.321 11.3506 24.4049 11.3506 19.5741V11.177H19.4565C24.3225 11.177 28.2672 15.0931 28.2672 19.924V25.0872L31.7915 28.586V19.2242ZM26.1526 22.988V19.924C26.1526 16.2525 23.1547 13.2763 19.4565 13.2763H13.4652V19.5741C13.4652 23.2455 16.4631 26.2218 20.1613 26.2218H26.4196L19.4565 19.1818H22.3187L26.1526 22.988Z" fill="#005E59"/>
<path fill-rule="evenodd" clip-rule="evenodd" d="M19.6939 5.62756C19.6939 5.53284 19.7707 5.45605 19.8654 5.45605H20.5134C28.0083 5.45605 34.0773 11.7906 34.0773 19.2243V30.614L36.8916 33.408L37.9655 34.5252C37.9962 34.5572 38.0134 34.5998 38.0134 34.6441V37.1779C38.0134 37.245 37.9743 37.3059 37.9133 37.3338C37.8522 37.3617 37.7806 37.3515 37.7298 37.3077L36.6936 36.413L28.4647 28.4927H20.161C15.2014 28.4927 11.1787 24.5009 11.1787 19.5742V11.1771C11.1787 11.0824 11.2555 11.0056 11.3502 11.0056H19.4561C24.4157 11.0056 28.4384 14.9974 28.4384 19.9241V25.016L31.6197 28.1742V19.2243C31.6197 13.1317 26.6433 7.94133 20.5134 7.94133H19.8654C19.7707 7.94133 19.6939 7.86454 19.6939 7.76982V5.62756ZM20.0369 5.79907V7.59831H20.5134C26.8405 7.59831 31.9627 12.9501 31.9627 19.2243V28.5861C31.9627 28.6554 31.921 28.7179 31.8571 28.7445C31.7931 28.7711 31.7195 28.7566 31.6703 28.7079L28.146 25.2091C28.1136 25.1769 28.0954 25.1331 28.0954 25.0874V19.9241C28.0954 15.1892 24.2286 11.3486 19.4561 11.3486H11.5217V19.5742C11.5217 24.3091 15.3885 28.1497 20.161 28.1497H28.5338C28.5781 28.1497 28.6208 28.1668 28.6527 28.1976L36.9283 36.1624L37.6704 36.8032V34.7132L36.6457 33.6472L33.7849 30.8071C33.7525 30.7749 33.7342 30.7311 33.7342 30.6854V19.2243C33.7342 11.9724 27.8113 5.79907 20.5134 5.79907H20.0369ZM13.2933 13.2764C13.2933 13.1817 13.3701 13.1049 13.4648 13.1049H19.4561C23.2478 13.1049 26.3238 16.1568 26.3238 19.9241V22.9881C26.3238 23.0573 26.2821 23.1198 26.2182 23.1464C26.1543 23.173 26.0806 23.1586 26.0314 23.1098L22.2476 19.3534H19.867L26.5411 26.1013C26.5898 26.1505 26.6041 26.2241 26.5775 26.288C26.5508 26.3518 26.4884 26.3934 26.4192 26.3934H20.161C16.3692 26.3934 13.2933 23.3415 13.2933 19.5742V13.2764ZM13.6363 13.4479V19.5742C13.6363 23.1497 16.5563 26.0504 20.161 26.0504H26.0083L19.3342 19.3025C19.2855 19.2533 19.2712 19.1797 19.2978 19.1158C19.3245 19.052 19.3869 19.0104 19.4561 19.0104H22.3183C22.3636 19.0104 22.407 19.0283 22.4391 19.0602L25.9808 22.5762V19.9241C25.9808 16.3486 23.0608 13.4479 19.4561 13.4479H13.6363Z" fill="#005E59"/>
<path fill-rule="evenodd" clip-rule="evenodd" d="M5.62793 20.595V14.9429H7.71347V20.595C7.71347 27.0333 12.849 32.2526 19.1839 32.2526H26.8309L28.9164 34.3721H19.1839C11.6972 34.3721 5.62793 28.2039 5.62793 20.595Z" fill="#005E59"/>
<path fill-rule="evenodd" clip-rule="evenodd" d="M5.45605 14.943C5.45605 14.8483 5.53284 14.7715 5.62756 14.7715H7.7131C7.80782 14.7715 7.88461 14.8483 7.88461 14.943V20.5951C7.88461 26.9413 12.9459 32.0812 19.1835 32.0812H26.8305C26.8765 32.0812 26.9205 32.0996 26.9528 32.1324L29.0383 34.252C29.0868 34.3012 29.1009 34.3748 29.0742 34.4385C29.0475 34.5023 28.9852 34.5438 28.9161 34.5438H19.1835C11.5995 34.5438 5.45605 28.2961 5.45605 20.5951V14.943ZM5.79907 15.1145V20.5951C5.79907 28.1119 11.7941 34.2007 19.1835 34.2007H28.5067L26.7587 32.4242H19.1835C12.7513 32.4242 7.54159 27.1255 7.54159 20.5951V15.1145H5.79907Z" fill="#005E59"/>
<path fill-rule="evenodd" clip-rule="evenodd" d="M0.170898 0.171387H13.4786V2.30605H2.27212V17.6045H0.170898V0.171387Z" fill="#005E59"/>
<path d="M58.2957 5.01514H54.1338V29.5585C54.1338 32.5896 56.591 35.0468 59.6221 35.0468H68.3345V30.6707H61.7259C60.2104 30.6707 58.9818 29.4422 58.9818 27.9266V5.70117C58.9818 5.32229 58.6746 5.01514 58.2957 5.01514Z" fill="#0D0D0D"/>
<path fill-rule="evenodd" clip-rule="evenodd" d="M75.6552 26.6273H90.3993C90.9153 22.6955 89.721 14.832 80.8156 14.832C71.9102 14.832 70.421 22.6955 70.7896 26.6273C71.1582 29.4041 73.6795 34.9577 80.8156 34.9577C87.9517 34.9577 90.1781 30.5345 90.3993 28.3229H86.1972C85.5337 29.1584 84.0593 30.8294 80.8156 30.8294C77.5719 30.8294 75.6552 28.3229 75.6552 26.6273ZM75.5077 23.3099H85.9023C85.6074 21.9338 84.192 19.1816 80.8893 19.1816C77.5867 19.1816 75.9255 21.9338 75.5077 23.3099Z" fill="#0D0D0D"/>
<path fill-rule="evenodd" clip-rule="evenodd" d="M109.051 18.2232C108.584 17.1174 106.529 14.9058 102.047 14.9058C96.4443 14.9058 91.8737 20.4348 93.5692 28.028C95.2648 35.6212 104.701 37.1693 109.051 31.8615V35.0315H113.99V14.9058H109.051V18.2232ZM103.411 30.5345C106.444 30.5345 108.903 28.0096 108.903 24.8949C108.903 21.7803 106.444 19.2553 103.411 19.2553C100.378 19.2553 97.9188 21.7803 97.9188 24.8949C97.9188 28.0096 100.378 30.5345 103.411 30.5345Z" fill="#0D0D0D"/>
<path d="M123.378 34.9828H118.674V12.4995C118.674 8.33176 122.052 4.95312 126.22 4.95312H128.881V9.37638H126.808C124.914 9.37638 123.378 10.9121 123.378 12.8066V14.9054H127.628V18.6652H123.378V34.9828Z" fill="#0D0D0D"/>
</svg>
