<svg width="48" height="48" viewBox="0 0 48 48" fill="none" xmlns="http://www.w3.org/2000/svg">
<path fill-rule="evenodd" clip-rule="evenodd" d="M0.205078 0.205322H16.1213V2.75842H2.71817V21.0556H0.205078V0.205322Z" fill="#5AB88F"/>
<path fill-rule="evenodd" clip-rule="evenodd" d="M0 0.205128C0 0.0918387 0.0918387 0 0.205128 0H16.1214C16.2347 0 16.3265 0.0918387 16.3265 0.205128V2.75822C16.3265 2.87151 16.2347 2.96335 16.1214 2.96335H2.92335V21.0554C2.92335 21.1687 2.83151 21.2605 2.71822 21.2605H0.205128C0.0918387 21.2605 0 21.1687 0 21.0554V0.205128ZM0.410255 0.410255V20.8503H2.51309V2.75822C2.51309 2.64494 2.60493 2.5531 2.71822 2.5531H15.9162V0.410255H0.410255Z" fill="#5AB88F"/>
<path fill-rule="evenodd" clip-rule="evenodd" d="M23.6958 2.73472H20.7363V0.205322H23.6958C37.0048 0.205322 47.794 10.9636 47.794 24.2346V46.9991L45.2573 44.4697V24.2346C45.2573 12.3605 35.6039 2.73472 23.6958 2.73472Z" fill="#5AB88F"/>
<path fill-rule="evenodd" clip-rule="evenodd" d="M20.5322 0.205128C20.5322 0.0918387 20.6241 0 20.7374 0H23.6968C37.1186 0 48.0001 10.8495 48.0001 24.2344V46.9989C48.0001 47.0818 47.9502 47.1566 47.8736 47.1884C47.797 47.2201 47.7089 47.2027 47.6501 47.1442L45.1135 44.6148C45.0749 44.5763 45.0532 44.524 45.0532 44.4695V24.2344C45.0532 12.4742 35.4922 2.93965 23.6968 2.93965H20.7374C20.6241 2.93965 20.5322 2.84781 20.5322 2.73452V0.205128ZM20.9425 0.410255V2.52939H23.6968C35.7176 2.52939 45.4635 12.2465 45.4635 24.2344V44.3844L47.5899 46.5047V24.2344C47.5899 11.0772 36.8931 0.410255 23.6968 0.410255H20.9425Z" fill="#5AB88F"/>
<path fill-rule="evenodd" clip-rule="evenodd" d="M23.9059 47.6356C11.7477 47.6356 1.46474 38.1419 0.205078 25.9895H2.80048C3.92649 36.8524 13.0378 45.1044 23.9059 45.1044H38.9094L41.4282 47.6356H23.9059Z" fill="#5AB88F"/>
<path fill-rule="evenodd" clip-rule="evenodd" d="M0.0527874 25.8519C0.0916839 25.8088 0.147045 25.7842 0.205128 25.7842H2.80053C2.90563 25.7842 2.99373 25.8636 3.00457 25.9682C4.11982 36.7274 13.1437 44.8991 23.906 44.8991H38.9095C38.964 44.8991 39.0164 44.9209 39.0549 44.9595L41.5736 47.4907C41.6321 47.5495 41.6494 47.6376 41.6176 47.7141C41.5858 47.7907 41.5111 47.8405 41.4282 47.8405H23.906C11.6398 47.8405 1.27129 38.2644 0.00109409 26.0105C-0.00489451 25.9527 0.0138908 25.8951 0.0527874 25.8519ZM0.433703 26.1944C1.78619 38.1365 11.9314 47.4303 23.906 47.4303H40.9347L38.8242 45.3094H23.906C12.9934 45.3094 3.83633 37.0702 2.61635 26.1944H0.433703Z" fill="#5AB88F"/>
<path fill-rule="evenodd" clip-rule="evenodd" d="M6.73047 6.73065H23.7609V9.29715H9.22272V13.5746H6.73047V6.73065Z" fill="#5AB88F"/>
<path fill-rule="evenodd" clip-rule="evenodd" d="M6.52539 6.7307C6.52539 6.61741 6.61723 6.52557 6.73052 6.52557H23.7609C23.8742 6.52557 23.966 6.61741 23.966 6.7307V9.2972C23.966 9.41049 23.8742 9.50232 23.7609 9.50232H9.4279V13.5747C9.4279 13.688 9.33606 13.7798 9.22277 13.7798H6.73052C6.61723 13.7798 6.52539 13.688 6.52539 13.5747V6.7307ZM6.93565 6.93583V13.3696H9.01764V9.2972C9.01764 9.18391 9.10948 9.09207 9.22277 9.09207H23.5558V6.93583H6.93565Z" fill="#5AB88F"/>
<path fill-rule="evenodd" clip-rule="evenodd" d="M38.0229 22.9926C38.0229 15.5971 31.984 9.29283 24.5345 9.29283H23.7595V6.73065H24.5345C33.3807 6.73065 40.552 14.2105 40.552 22.9926V36.7003L43.9752 40.0987L45.2597 41.4349V44.4654L44.0288 43.4025L34.127 33.8726H24.113C18.2931 33.8726 13.5752 29.1888 13.5752 23.4111V13.368H23.27C29.0899 13.368 33.8078 18.0518 33.8078 23.8295V30.0049L38.0229 34.1895V22.9926ZM31.2787 27.4941V23.8295C31.2787 19.4385 27.6931 15.8788 23.27 15.8788H16.1043V23.4111C16.1043 27.8022 19.6899 31.3618 24.113 31.3618H31.598L23.27 22.9418H26.6932L31.2787 27.4941Z" fill="#5AB88F"/>
<path fill-rule="evenodd" clip-rule="evenodd" d="M23.5535 6.7307C23.5535 6.61741 23.6453 6.52557 23.7586 6.52557H24.5336C33.4976 6.52557 40.7562 14.1018 40.7562 22.9927V36.6149L44.1222 39.9566L45.4066 41.2928C45.4434 41.331 45.4639 41.382 45.4639 41.435V44.4654C45.4639 44.5457 45.4171 44.6185 45.3441 44.6519C45.2712 44.6853 45.1854 44.6731 45.1247 44.6207L43.8854 43.5506L34.0434 34.0778H24.1121C18.1803 34.0778 13.3691 29.3036 13.3691 23.4111V13.3681C13.3691 13.2548 13.461 13.1629 13.5743 13.1629H23.2691C29.2008 13.1629 34.012 17.9372 34.012 23.8296V29.9196L37.8169 33.6969V22.9927C37.8169 15.7058 31.8651 9.498 24.5336 9.498H23.7586C23.6453 9.498 23.5535 9.40616 23.5535 9.29288V6.7307ZM23.9637 6.93583V9.08775H24.5336C32.101 9.08775 38.2271 15.4886 38.2271 22.9927V34.1896C38.2271 34.2724 38.1773 34.3471 38.1008 34.3789C38.0244 34.4108 37.9363 34.3935 37.8775 34.3351L33.6623 30.1505C33.6236 30.112 33.6017 30.0596 33.6017 30.005V23.8296C33.6017 18.1665 28.977 13.5732 23.2691 13.5732H13.7794V23.4111C13.7794 29.0742 18.4041 33.6675 24.1121 33.6675H34.1261C34.1791 33.6675 34.2301 33.6881 34.2683 33.7248L44.1661 43.2509L45.0536 44.0173V41.5176L43.8281 40.2426L40.4065 36.8459C40.3678 36.8074 40.3459 36.755 40.3459 36.7003V22.9927C40.3459 14.3192 33.262 6.93583 24.5336 6.93583H23.9637ZM15.8982 15.8788C15.8982 15.7655 15.9901 15.6737 16.1033 15.6737H23.2691C27.804 15.6737 31.4829 19.3238 31.4829 23.8296V27.4942C31.4829 27.577 31.4331 27.6517 31.3566 27.6836C31.2802 27.7154 31.1921 27.6981 31.1333 27.6398L26.6078 23.147H23.7605L31.7429 31.2176C31.8011 31.2765 31.8182 31.3645 31.7863 31.4409C31.7544 31.5173 31.6798 31.567 31.597 31.567H24.1121C19.5771 31.567 15.8982 27.9169 15.8982 23.4111V15.8788ZM16.3085 16.084V23.4111C16.3085 27.6875 19.8009 31.1568 24.1121 31.1568H31.1056L23.1232 23.0861C23.065 23.0273 23.0479 22.9393 23.0798 22.8629C23.1116 22.7865 23.1863 22.7368 23.2691 22.7368H26.6923C26.7464 22.7368 26.7984 22.7582 26.8368 22.7963L31.0727 27.0015V23.8296C31.0727 19.5532 27.5803 16.084 23.2691 16.084H16.3085Z" fill="#5AB88F"/>
<path fill-rule="evenodd" clip-rule="evenodd" d="M6.73047 24.6323V17.8722H9.22481V24.6323C9.22481 32.3326 15.3669 38.5749 22.9437 38.5749H32.0896L34.5839 41.1099H22.9437C13.9894 41.1099 6.73047 33.7326 6.73047 24.6323Z" fill="#5AB88F"/>
<path fill-rule="evenodd" clip-rule="evenodd" d="M6.52539 17.872C6.52539 17.7587 6.61723 17.6669 6.73052 17.6669H9.22486C9.33814 17.6669 9.42998 17.7587 9.42998 17.872V24.6321C9.42998 32.2222 15.4834 38.3696 22.9437 38.3696H32.0896C32.1446 38.3696 32.1973 38.3916 32.2358 38.4308L34.7302 40.9659C34.7881 41.0248 34.8051 41.1127 34.7731 41.189C34.7412 41.2652 34.6666 41.3148 34.584 41.3148H22.9437C13.873 41.3148 6.52539 33.8426 6.52539 24.6321V17.872ZM6.93565 18.0771V24.6321C6.93565 33.6223 14.1058 40.9046 22.9437 40.9046H34.0943L32.0037 38.7798H22.9437C15.2506 38.7798 9.01973 32.4425 9.01973 24.6321V18.0771H6.93565Z" fill="#5AB88F"/>
</svg>
