<svg width="48" height="48" viewBox="0 0 48 48" fill="none" xmlns="http://www.w3.org/2000/svg">
<path fill-rule="evenodd" clip-rule="evenodd" d="M0.205078 0.206055H16.1213V2.76766H2.71817V21.1258H0.205078V0.206055Z" fill="#33CC99"/>
<path fill-rule="evenodd" clip-rule="evenodd" d="M0 0.205811C0 0.0921449 0.0918387 0 0.205128 0H16.1214C16.2347 0 16.3265 0.0921449 16.3265 0.205811V2.76742C16.3265 2.88108 16.2347 2.97323 16.1214 2.97323H2.92335V21.1256C2.92335 21.2393 2.83151 21.3314 2.71822 21.3314H0.205128C0.0918387 21.3314 0 21.2393 0 21.1256V0.205811ZM0.410255 0.411623V20.9198H2.51309V2.76742C2.51309 2.65375 2.60493 2.56161 2.71822 2.56161H15.9162V0.411623H0.410255Z" fill="#33CC99"/>
<path fill-rule="evenodd" clip-rule="evenodd" d="M23.6958 2.74388H20.7363V0.206055H23.6958C37.0048 0.206055 47.794 11.0002 47.794 24.3154V47.1558L45.2573 44.618V24.3154C45.2573 12.4018 35.6039 2.74388 23.6958 2.74388Z" fill="#33CC99"/>
<path fill-rule="evenodd" clip-rule="evenodd" d="M20.5322 0.205811C20.5322 0.0921449 20.6241 0 20.7374 0H23.6968C37.1186 0 48.0001 10.8857 48.0001 24.3151V47.1556C48.0001 47.2388 47.9502 47.3138 47.8736 47.3457C47.797 47.3775 47.7089 47.36 47.6501 47.3013L45.1135 44.7635C45.0749 44.7249 45.0532 44.6724 45.0532 44.6177V24.3151C45.0532 12.5158 35.4922 2.94945 23.6968 2.94945H20.7374C20.6241 2.94945 20.5322 2.8573 20.5322 2.74364V0.205811ZM20.9425 0.411623V2.53782H23.6968C35.7176 2.53782 45.4635 12.2873 45.4635 24.3151V44.5323L47.5899 46.6597V24.3151C47.5899 11.1142 36.8931 0.411623 23.6968 0.411623H20.9425Z" fill="#33CC99"/>
<path fill-rule="evenodd" clip-rule="evenodd" d="M23.9059 47.7944C11.7477 47.7944 1.46474 38.269 0.205078 26.0762H2.80048C3.92649 36.9753 13.0378 45.2548 23.9059 45.2548H38.9094L41.4282 47.7944H23.9059Z" fill="#33CC99"/>
<path fill-rule="evenodd" clip-rule="evenodd" d="M0.0527874 25.9381C0.0916839 25.8948 0.147045 25.8701 0.205128 25.8701H2.80053C2.90563 25.8701 2.99373 25.9498 3.00457 26.0547C4.11982 36.8498 13.1437 45.0488 23.906 45.0488H38.9095C38.964 45.0488 39.0164 45.0706 39.0549 45.1094L41.5736 47.649C41.6321 47.708 41.6494 47.7964 41.6176 47.8732C41.5858 47.95 41.5111 48 41.4282 48H23.906C11.6398 48 1.27129 38.392 0.00109409 26.0971C-0.00489451 26.0392 0.0138908 25.9814 0.0527874 25.9381ZM0.433703 26.2817C1.78619 38.2636 11.9314 47.5884 23.906 47.5884H40.9347L38.8242 45.4604H23.906C12.9934 45.4604 3.83633 37.1937 2.61635 26.2817H0.433703Z" fill="#33CC99"/>
<path fill-rule="evenodd" clip-rule="evenodd" d="M6.73047 6.75293H23.7609V9.32798H9.22272V13.6197H6.73047V6.75293Z" fill="#33CC99"/>
<path fill-rule="evenodd" clip-rule="evenodd" d="M6.52539 6.75317C6.52539 6.63951 6.61723 6.54736 6.73052 6.54736H23.7609C23.8742 6.54736 23.966 6.63951 23.966 6.75317V9.32823C23.966 9.44189 23.8742 9.53404 23.7609 9.53404H9.4279V13.62C9.4279 13.7336 9.33606 13.8258 9.22277 13.8258H6.73052C6.61723 13.8258 6.52539 13.7336 6.52539 13.62V6.75317ZM6.93565 6.95899V13.4142H9.01764V9.32823C9.01764 9.21456 9.10948 9.12241 9.22277 9.12241H23.5558V6.95899H6.93565Z" fill="#33CC99"/>
<path fill-rule="evenodd" clip-rule="evenodd" d="M38.0229 23.0691C38.0229 15.6489 31.984 9.32364 24.5345 9.32364H23.7595V6.75293H24.5345C33.3807 6.75293 40.552 14.2577 40.552 23.0691V36.8225L43.9752 40.2322L45.2597 41.5729V44.6134L44.0288 43.547L34.127 33.9853H24.113C18.2931 33.9853 13.5752 29.2859 13.5752 23.489V13.4124H23.27C29.0899 13.4124 33.8078 18.1118 33.8078 23.9088V30.1048L38.0229 34.3033V23.0691ZM31.2787 27.5856V23.9088C31.2787 19.5031 27.6931 15.9316 23.27 15.9316H16.1043V23.489C16.1043 27.8947 19.6899 31.4662 24.113 31.4662H31.598L23.27 23.0182H26.6932L31.2787 27.5856Z" fill="#33CC99"/>
<path fill-rule="evenodd" clip-rule="evenodd" d="M23.5535 6.75317C23.5535 6.63951 23.6453 6.54736 23.7586 6.54736H24.5336C33.4976 6.54736 40.7562 14.1488 40.7562 23.0693V36.737L44.1222 40.0898L45.4066 41.4305C45.4434 41.4688 45.4639 41.52 45.4639 41.5731V44.6137C45.4639 44.6942 45.4171 44.7673 45.3441 44.8008C45.2712 44.8343 45.1854 44.8221 45.1247 44.7694L43.8854 43.6958L34.0434 34.1914H24.1121C18.1803 34.1914 13.3691 29.4013 13.3691 23.4892V13.4127C13.3691 13.299 13.461 13.2069 13.5743 13.2069H23.2691C29.2008 13.2069 34.012 17.997 34.012 23.9091V30.0193L37.8169 33.8092V23.0693C37.8169 15.7581 31.8651 9.5297 24.5336 9.5297H23.7586C23.6453 9.5297 23.5535 9.43756 23.5535 9.32389V6.75317ZM23.9637 6.95899V9.11808H24.5336C32.101 9.11808 38.2271 15.5402 38.2271 23.0693V34.3036C38.2271 34.3867 38.1773 34.4616 38.1008 34.4936C38.0244 34.5255 37.9363 34.5082 37.8775 34.4496L33.6623 30.2511C33.6236 30.2124 33.6017 30.1599 33.6017 30.105V23.9091C33.6017 18.2271 28.977 13.6185 23.2691 13.6185H13.7794V23.4892C13.7794 29.1711 18.4041 33.7798 24.1121 33.7798H34.1261C34.1791 33.7798 34.2301 33.8004 34.2683 33.8373L44.1661 43.3952L45.0536 44.164V41.656L43.8281 40.3768L40.4065 36.9688C40.3678 36.9301 40.3459 36.8775 40.3459 36.8227V23.0693C40.3459 14.367 33.262 6.95899 24.5336 6.95899H23.9637ZM15.8982 15.9318C15.8982 15.8181 15.9901 15.726 16.1033 15.726H23.2691C27.804 15.726 31.4829 19.3883 31.4829 23.9091V27.5859C31.4829 27.669 31.4331 27.7439 31.3566 27.7759C31.2802 27.8078 31.1921 27.7905 31.1333 27.7319L26.6078 23.2242H23.7605L31.7429 31.3217C31.8011 31.3808 31.8182 31.4691 31.7863 31.5457C31.7544 31.6224 31.6798 31.6723 31.597 31.6723H24.1121C19.5771 31.6723 15.8982 28.01 15.8982 23.4892V15.9318ZM16.3085 16.1376V23.4892C16.3085 27.7798 19.8009 31.2606 24.1121 31.2606H31.1056L23.1232 23.1631C23.065 23.1041 23.0479 23.0158 23.0798 22.9391C23.1116 22.8625 23.1863 22.8126 23.2691 22.8126H26.6923C26.7464 22.8126 26.7984 22.8341 26.8368 22.8724L31.0727 27.0916V23.9091C31.0727 19.6184 27.5803 16.1376 23.2691 16.1376H16.3085Z" fill="#33CC99"/>
<path fill-rule="evenodd" clip-rule="evenodd" d="M6.73047 24.7142V17.9316H9.22481V24.7142C9.22481 32.4402 15.3669 38.7034 22.9437 38.7034H32.0896L34.5839 41.2468H22.9437C13.9894 41.2468 6.73047 33.8449 6.73047 24.7142Z" fill="#33CC99"/>
<path fill-rule="evenodd" clip-rule="evenodd" d="M6.52539 17.9319C6.52539 17.8182 6.61723 17.7261 6.73052 17.7261H9.22486C9.33814 17.7261 9.42998 17.8182 9.42998 17.9319V24.7145C9.42998 32.3299 15.4834 38.4978 22.9437 38.4978H32.0896C32.1446 38.4978 32.1973 38.5199 32.2358 38.5592L34.7302 41.1027C34.7881 41.1618 34.8051 41.2501 34.7731 41.3266C34.7412 41.4031 34.6666 41.4529 34.584 41.4529H22.9437C13.873 41.4529 6.52539 33.9557 6.52539 24.7145V17.9319ZM6.93565 18.1377V24.7145C6.93565 33.7347 14.1058 41.0413 22.9437 41.0413H34.0943L32.0037 38.9094H22.9437C15.2506 38.9094 9.01973 32.551 9.01973 24.7145V18.1377H6.93565Z" fill="#33CC99"/>
</svg>
