<svg width="35" height="35" viewBox="0 0 35 35" fill="none" xmlns="http://www.w3.org/2000/svg">
<path fill-rule="evenodd" clip-rule="evenodd" d="M22.1402 16.753L16.4436 11.0564L17.5 10L25 17.5L17.5 25L16.4436 23.9436L22.1402 18.247H10V16.753H22.1402Z" fill="#00866D"/>
<path d="M17.5 34C8.3873 34 1 26.6127 1 17.5H-1C-1 27.7173 7.28273 36 17.5 36V34ZM34 17.5C34 26.6127 26.6127 34 17.5 34V36C27.7173 36 36 27.7173 36 17.5H34ZM17.5 1C26.6127 1 34 8.3873 34 17.5H36C36 7.28273 27.7173 -1 17.5 -1V1ZM17.5 -1C7.28273 -1 -1 7.28273 -1 17.5H1C1 8.3873 8.3873 1 17.5 1V-1Z" fill="#00866D"/>
</svg>
