<svg width="14" height="14" viewBox="0 0 14 14" fill="none" xmlns="http://www.w3.org/2000/svg">
<path d="M0.21066 13.9919H3.15309V4.66439H0.21066V13.9919Z" fill="#005E59"/>
<path d="M0.74375 3.08298C1.02034 3.26943 1.34607 3.36993 1.67984 3.37181C1.90327 3.37638 2.12535 3.33602 2.33282 3.25312C2.54029 3.17022 2.72891 3.04648 2.88745 2.88928C3.04598 2.73208 3.17118 2.54464 3.25558 2.33813C3.33998 2.13161 3.38185 1.91025 3.3787 1.68725C3.37896 1.35415 3.28035 1.02844 3.0953 0.751227C2.91025 0.474011 2.64707 0.257712 2.33896 0.129627C2.03085 0.00154179 1.69162 -0.0325884 1.36409 0.031544C1.03656 0.0956764 0.735411 0.255196 0.498641 0.489973C0.261871 0.724749 0.100095 1.02426 0.0337307 1.3507C-0.0326339 1.67715 -0.00061312 2.0159 0.125752 2.3242C0.252117 2.6325 0.467163 2.89653 0.74375 3.08298Z" fill="#005E59"/>
<path d="M11.0576 14H13.9986L14 8.23018C14 5.38189 12.2264 4.4094 10.5846 4.4094C9.0665 4.4094 8.07164 5.39003 7.78759 5.96375H7.74954V4.67117H4.91991V14H7.86234V8.94225C7.86234 7.59406 8.71857 6.9376 9.59111 6.9376C10.4174 6.9376 11.0576 7.40146 11.0576 8.90427V14Z" fill="#005E59"/>
</svg>
