<svg width="14" height="12" viewBox="0 0 14 12" fill="none" xmlns="http://www.w3.org/2000/svg">
<path d="M12.2834 3.1888C12.2888 3.312 12.2888 3.4296 12.2888 3.5528C12.2942 7.28801 9.54989 11.6 4.53133 11.6C3.05115 11.6 1.59799 11.1576 0.350098 10.3288C0.566182 10.3568 0.782267 10.368 0.998351 10.368C2.22463 10.368 3.4185 9.94242 4.38548 9.15282C3.21862 9.13042 2.19222 8.34081 1.83568 7.18721C2.24624 7.27121 2.6676 7.25441 3.06736 7.13681C1.79786 6.87921 0.884907 5.72001 0.879505 4.3704C0.879505 4.3592 0.879505 4.348 0.879505 4.3368C1.25765 4.5552 1.68442 4.6784 2.11659 4.6896C0.922722 3.8608 0.549976 2.20879 1.27386 0.91519C2.6622 2.6848 4.7042 3.7544 6.89746 3.872C6.67597 2.892 6.97849 1.86159 7.68617 1.16719C8.78279 0.0975875 10.5115 0.153588 11.5487 1.29039C12.1591 1.16719 12.7479 0.93199 13.2828 0.601589C13.0775 1.25679 12.6507 1.81119 12.0835 2.16399C12.6237 2.09679 13.1531 1.94559 13.6501 1.72159C13.2828 2.29279 12.8182 2.7856 12.2834 3.1888Z" fill="#005E59"/>
</svg>
