<svg width="136" height="26" viewBox="0 0 136 26" fill="none" xmlns="http://www.w3.org/2000/svg">
<g style="mix-blend-mode:luminosity" opacity="0.5" clip-path="url(#clip0_704_3643)">
<path fill-rule="evenodd" clip-rule="evenodd" d="M15.7823 0H0.0951445C0.0523983 0.314305 0.0261992 0.647854 0.0158574 1.00161C0.00482611 1.35504 0 1.47435 0 1.78801C0 2.10264 0.00482611 2.43169 0.0158574 2.77486C0.0261992 3.11868 0.0523983 3.43747 0.0951445 3.73221L2.08939 4.02663V15.3961L0.0951445 15.6909C0.0523983 15.9853 0.0261992 16.3047 0.0158574 16.6479C0.00482611 16.9917 0 17.3208 0 17.6348C0 17.9491 0.00482611 18.2826 0.0158574 18.6364C0.0261992 18.9898 0.0523983 19.3237 0.0951445 19.6377H10.4728C10.5149 19.3237 10.5411 18.9898 10.5518 18.6364C10.5625 18.2826 10.5676 17.9491 10.5676 17.6348C10.5676 17.3208 10.5625 16.9917 10.5518 16.6479C10.5411 16.3047 10.5149 15.9853 10.4728 15.6909L7.36235 15.3961V11.8458H13.504C13.694 10.4125 13.7891 9.21363 13.7891 7.81914H7.36235V3.90284H10.8131L10.9713 5.80983C11.3088 5.8496 11.7259 5.87911 12.222 5.89836C12.7177 5.91824 13.1345 5.92786 13.4726 5.92786C13.8098 5.92786 14.2055 5.91824 14.6599 5.89836C15.1132 5.87911 15.4659 5.8496 15.7823 5.80983V0ZM24.1402 15.8896C23.8889 16.047 23.5807 16.1647 23.2153 16.243C22.8492 16.3216 22.4993 16.3607 22.1649 16.3607C21.7257 16.3607 21.4072 16.2481 21.2086 16.022C21.0097 15.7966 20.9108 15.5926 20.9108 15.0429C20.9108 14.4736 21.0201 14.3876 21.24 14.1715C21.4596 13.9556 21.8202 13.828 22.3218 13.7885L24.1402 13.7V15.8896ZM31.778 15.4476H30.1002C29.6355 15.4476 29.4035 15.4159 29.4035 14.9839V5.9463C28.9392 5.61243 28.4165 5.32763 27.8364 5.09191C27.2558 4.85618 26.4513 4.66503 25.818 4.5175C25.1851 4.37028 24.5359 4.26252 23.871 4.19357C23.2063 4.12494 22.5572 4.09062 21.9239 4.09062C21.2062 4.09062 20.4202 4.14482 19.5653 4.25258C18.7107 4.36066 17.8717 4.54251 17.0485 4.79748C17.0485 5.11179 17.0691 5.46009 17.1119 5.84303C17.154 6.22597 17.2067 6.61885 17.2701 7.02135C17.3336 7.42386 17.407 7.81193 17.4918 8.1846C17.5759 8.55792 17.6707 8.89147 17.7765 9.18621C18.3884 8.91136 19.0272 8.72502 19.6922 8.62655C20.3568 8.52841 20.9949 8.47934 21.6075 8.47934C22.0715 8.47934 22.5255 8.50885 22.9688 8.56754C23.4121 8.62656 23.8024 8.73464 24.1402 8.89147V10.6541L21.7974 10.7423C20.805 10.7818 19.9294 10.8799 19.1696 11.0368C18.4098 11.1942 17.771 11.4447 17.2543 11.7879C16.7368 12.1317 16.3466 12.5884 16.0829 13.1577C15.8188 13.7273 15.7216 14.2504 15.7216 15.0942C15.7216 16.7045 16.1384 17.8828 17.0409 18.6288C17.9434 19.3755 19.1703 19.7481 20.7208 19.7481C22.3187 19.7481 23.7489 19.218 25.011 18.1577H25.2316C25.6098 18.8056 26.2758 19.2328 26.8329 19.439C27.3896 19.6452 28.0156 19.7481 28.7096 19.7481C29.8685 19.7481 30.67 19.4977 31.1133 18.997C31.5563 18.4964 31.778 17.7748 31.778 16.8322V15.4476ZM44.5589 4.01198C44.3159 3.98247 44.0891 3.96772 43.8781 3.96772C43.6251 3.96772 43.3662 3.99722 43.1025 4.05624C42.8384 4.11493 42.2293 4.22333 41.9338 4.38017C41.6381 4.53764 41.3323 4.7631 41.0158 5.05752C40.699 5.35226 40.3715 5.74515 40.0344 6.23585H39.781L39.8758 3.86958C39.306 3.86958 38.7096 3.87984 38.0874 3.89909C37.4644 3.91897 36.8367 3.94334 36.2034 3.97285C35.5702 4.00203 34.9528 4.0418 34.3512 4.09055C33.7497 4.13962 33.206 4.20377 32.721 4.28202C32.6576 4.87119 32.6258 5.72526 32.6258 6.35355C32.6258 7.00173 32.6576 7.63034 32.721 8.23874L34.6839 8.41546V15.632L32.7841 15.9264C32.721 16.5156 32.6893 17.1243 32.6893 17.7526C32.6893 18.4007 32.721 19.0294 32.7841 19.6378H41.9021C41.9655 19.0294 41.9973 18.4007 41.9973 17.7526C41.9973 17.1243 41.9655 16.5156 41.9021 15.9264L39.9075 15.632V9.08063C40.6883 8.80577 41.8728 8.66818 42.8019 8.66818C43.4558 8.66818 44.1208 8.74708 44.7964 8.90391C44.9016 8.11879 44.9967 7.56138 45.0812 6.61879C45.1653 5.67619 45.208 4.8513 45.208 4.14443C45.0181 4.08574 44.8013 4.04149 44.5589 4.01198ZM72.6723 16.8542C72.6613 16.5303 72.6351 16.2208 72.5931 15.9264L70.5592 15.632V8.76889C70.5592 7.10019 70.1421 5.88241 69.3085 5.11654C68.4746 4.35066 67.3822 3.96772 66.0319 3.96772C65.2293 3.96772 64.4592 4.09055 63.7205 4.33591C62.9817 4.5819 62.2533 4.98889 61.5359 5.55849C61.1771 5.0479 60.7289 4.65534 60.1905 4.38017C59.6523 4.10531 58.9608 3.96772 58.1169 3.96772C57.2723 3.96772 56.507 4.11044 55.8214 4.39492C55.1354 4.67972 54.489 5.16593 53.7506 5.85291H53.4972L53.592 4.11493C53.0222 4.11493 52.4258 4.12519 51.8036 4.14443C51.1807 4.16432 50.5529 4.18869 49.9196 4.2182C49.2864 4.24771 48.5373 4.28716 47.9357 4.33591C47.3342 4.3853 46.7906 4.44912 46.3052 4.52737C46.2417 5.11653 46.2104 5.72526 46.2104 6.35355C46.2104 7.00173 46.2417 7.63034 46.3052 8.23874L48.4001 8.41546V15.632L46.3686 15.9264C46.3052 16.5156 46.2735 17.1243 46.2735 17.7526C46.2735 18.4007 46.3052 19.0294 46.3686 19.6378H54.6686C54.732 19.0294 54.7638 18.4007 54.7638 17.7526C54.7638 17.1243 54.732 16.5156 54.6686 15.9264L53.6237 15.632V8.7984C53.9612 8.62168 54.3094 8.48922 54.6686 8.4007C55.0271 8.31251 55.2991 8.26825 55.6156 8.26825C56.101 8.26825 56.4229 8.38146 56.5815 8.60693C56.7397 8.83303 56.8187 9.17171 56.8187 9.62297V15.632L55.7742 15.9264C55.7107 16.5156 55.679 17.1243 55.679 17.7526C55.679 18.4007 55.7107 19.0294 55.7742 19.6378H63.0875C63.1506 19.0294 63.1824 18.4007 63.1824 17.7526C63.1824 17.4777 63.1768 17.1782 63.1665 16.8542C63.1558 16.5303 63.1296 16.2208 63.0875 15.9264L62.0427 15.632V8.7984C62.3167 8.62168 62.6229 8.48922 62.9607 8.4007C63.2982 8.31251 63.6464 8.26825 64.0056 8.26825C64.554 8.26825 64.9129 8.38595 65.0821 8.62168C65.2507 8.85741 65.3352 9.18134 65.3352 9.59378V15.632L64.2906 15.9264C64.2272 16.5156 64.1955 17.1243 64.1955 17.7526C64.1955 18.4007 64.2272 19.0294 64.2906 19.6378H72.5931C72.6565 19.0294 72.6882 18.4007 72.6882 17.7526C72.6882 17.4777 72.6827 17.1782 72.6723 16.8542ZM89.5385 13.9026C89.2221 13.8635 88.8367 13.834 88.383 13.8141C87.929 13.7949 87.5332 13.7849 87.1958 13.7849C86.8579 13.7849 86.4408 13.7949 85.9451 13.8141C85.449 13.834 85.0319 13.8635 84.6948 13.9026L84.5362 15.6111H81.092V4.24158L83.1473 3.94684C83.1893 3.65242 83.2155 3.3333 83.2266 2.98949C83.2369 2.64632 83.2421 2.31726 83.2421 2.00296C83.2421 1.68897 83.2369 1.35478 83.2266 1.00135C83.2155 0.647918 83.1893 0.314369 83.1473 6.35386e-05H73.8248C73.7824 0.314369 73.7562 0.647918 73.7455 1.00135C73.7348 1.35478 73.73 1.68897 73.73 2.00296C73.73 2.31726 73.7348 2.64632 73.7455 2.98949C73.7562 3.3333 73.7824 3.65242 73.8248 3.94684L75.8194 4.24158V15.3962L73.8248 15.6906C73.7824 15.9854 73.7562 16.3048 73.7455 16.648C73.7348 16.9918 73.73 17.3208 73.73 17.6348C73.73 17.9491 73.7348 18.2827 73.7455 18.6361C73.7562 18.9895 73.7824 19.3237 73.8248 19.6377H89.5385V13.9026ZM100.031 13.7553C99.9253 14.256 99.7726 14.6492 99.572 14.9337C99.3714 15.2185 99.1235 15.4151 98.8281 15.5225C98.5323 15.6309 98.1948 15.6845 97.8149 15.6845C97.414 15.6845 97.0655 15.6309 96.7704 15.5225C96.4743 15.4151 96.2319 15.2185 96.042 14.9337C95.852 14.6492 95.7097 14.256 95.6145 13.7553C95.5197 13.2547 95.4722 12.602 95.4722 11.7967C95.4722 11.0116 95.5245 10.3634 95.6304 9.8525C95.7359 9.34224 95.8886 8.94455 96.0896 8.65975C96.2898 8.37527 96.5377 8.17867 96.8335 8.07059C97.1289 7.96283 97.4667 7.90862 97.8466 7.90862C98.2472 7.90862 98.5957 7.96283 98.8915 8.07059C99.1869 8.17867 99.4296 8.37527 99.6196 8.65975C99.8095 8.94455 99.9519 9.34224 100.047 9.8525C100.142 10.3634 100.189 11.0116 100.189 11.7967C100.189 12.602 100.137 13.2547 100.031 13.7553ZM105.097 8.1296C104.696 7.11837 104.147 6.29348 103.451 5.65525C102.754 5.01734 101.925 4.55069 100.965 4.25627C100.005 3.96153 98.9653 3.81432 97.8466 3.81432C96.6856 3.81432 95.6252 3.99617 94.6648 4.35922C93.704 4.72292 92.876 5.24793 92.1797 5.93524C91.483 6.62286 90.9393 7.45705 90.5491 8.43878C90.1582 9.42082 89.9634 10.5401 89.9634 11.7967C89.9634 13.1912 90.1534 14.3888 90.5332 15.3901C90.9131 16.3917 91.4516 17.2162 92.1479 17.8644C92.8443 18.5123 93.6727 18.9937 94.6331 19.3076C95.5935 19.6213 96.6539 19.7788 97.8149 19.7788C98.9122 19.7788 99.9412 19.6066 100.902 19.2634C101.862 18.9199 102.701 18.4141 103.419 17.7464C104.136 17.0793 104.696 16.2441 105.097 15.2428C105.498 14.2412 105.698 13.0927 105.698 11.7967C105.698 10.3634 105.498 9.14115 105.097 8.1296ZM121.608 4.11506C121.292 4.07593 120.98 4.04129 120.674 4.01211C120.368 3.9826 120.057 3.96785 119.74 3.96785C119.212 3.96785 118.716 3.99735 118.252 4.05604C117.788 4.11506 117.376 4.20357 117.017 4.32128C116.638 4.22314 116.22 4.13975 115.767 4.0708C115.313 4.00216 114.843 3.96785 114.358 3.96785C113.176 3.96785 112.115 4.14456 111.176 4.498C110.237 4.85143 109.44 5.36234 108.786 6.02975C108.132 6.69749 107.625 7.52206 107.267 8.50378C106.907 9.48583 106.728 10.6051 106.728 11.8617C106.728 13.2562 106.876 14.439 107.171 15.4108C107.467 16.3829 107.878 17.1687 108.406 17.7674C108.934 18.3666 109.551 18.7982 110.258 19.0632C110.965 19.3284 111.72 19.4608 112.522 19.4608C113.197 19.4608 113.83 19.3534 114.421 19.1369C115.012 18.9211 115.582 18.499 116.131 17.8704H116.384V18.7835C116.384 19.7652 116.142 20.4573 115.656 20.8601C115.17 21.2623 114.327 21.4637 113.123 21.4637C112.237 21.4637 111.382 21.3653 110.559 21.1693C109.736 20.9727 109.039 20.7373 108.47 20.4625C108.343 20.7373 108.205 21.0612 108.058 21.4346C107.91 21.8072 107.767 22.2001 107.631 22.6126C107.493 23.025 107.366 23.4323 107.251 23.8348C107.134 24.2373 107.045 24.5859 106.981 24.8807C107.762 25.2341 108.654 25.509 109.657 25.7053C110.659 25.9015 111.783 26 113.028 26C114.231 26 115.356 25.8425 116.4 25.5285C117.445 25.2142 118.352 24.7527 119.123 24.1443C119.893 23.5353 120.5 22.7841 120.943 21.8909C121.387 20.9971 121.608 19.9618 121.608 18.7835V4.11506ZM116.384 14.9839C116.068 15.1414 115.746 15.2443 115.419 15.2931C115.091 15.3425 114.78 15.3669 114.485 15.3669C114.126 15.3669 113.611 15.3181 113.337 15.2193C113.063 15.1215 112.83 14.9397 112.64 14.6744C112.451 14.4095 112.303 14.0513 112.198 13.5994C112.092 13.1481 112.039 12.5686 112.039 11.8617C112.039 10.4874 112.24 9.5102 112.64 8.93098C113.041 8.35208 113.915 8.06183 114.865 8.06183C115.097 8.06183 115.345 8.08172 115.609 8.12084C115.872 8.16061 116.131 8.20936 116.384 8.26805V14.9839ZM135.446 12.4655C135.076 11.8866 134.612 11.4052 134.053 11.0222C133.493 10.6393 132.892 10.3349 132.248 10.1091C131.604 9.88368 131.003 9.69221 130.444 9.53474C129.884 9.37791 129.42 9.22075 129.051 9.0636C128.681 8.90645 128.497 8.70985 128.497 8.47444C128.497 8.1797 128.581 7.95423 128.75 7.79676C128.919 7.63993 129.235 7.56135 129.7 7.56135C129.932 7.56135 130.132 7.57129 130.301 7.59085C130.47 7.61042 130.607 7.63992 130.713 7.67905L131.029 8.82787C131.367 8.86732 131.742 8.8917 132.154 8.90132C132.565 8.91158 132.94 8.91607 133.277 8.91607C133.615 8.91607 133.969 8.91158 134.338 8.90132C134.707 8.8917 135.05 8.86732 135.367 8.82787V4.58636C134.628 4.3904 133.821 4.23805 132.945 4.12965C132.069 4.02221 131.188 3.96768 130.301 3.96768C129.309 3.96768 128.639 4.0809 127.763 4.30669C126.887 4.53247 126.122 4.86602 125.468 5.30797C124.814 5.74993 124.297 6.30477 123.917 6.97219C123.537 7.63993 123.347 8.4058 123.347 9.2695C123.347 10.1143 123.531 10.8064 123.901 11.3462C124.27 11.8866 124.734 12.3282 125.294 12.6717C125.853 13.0155 126.455 13.2904 127.098 13.4963C127.742 13.7025 128.08 13.8895 128.639 14.0559C129.198 14.223 129.663 14.3901 130.032 14.5569C130.401 14.724 130.586 14.9543 130.586 15.249C130.586 15.5832 130.491 15.8186 130.301 15.9559C130.111 16.0935 129.742 16.1621 129.193 16.1621C128.919 16.1621 128.66 16.1428 128.418 16.1031C128.175 16.0639 128.222 16.0149 128.032 15.9559L127.716 14.7484C127.378 14.7092 127.003 14.6849 126.592 14.6746C126.18 14.665 125.805 14.6598 125.468 14.6598C125.13 14.6598 124.776 14.665 124.408 14.6746C124.038 14.6849 123.695 14.7092 123.378 14.7484V18.7246C124.18 19.1371 125.082 19.4418 126.085 19.6377C127.087 19.8337 127.905 19.9321 129.066 19.9321C130.037 19.9321 130.95 19.8189 131.805 19.5935C132.66 19.368 133.393 19.0338 134.005 18.5922C134.617 18.1502 135.103 17.6008 135.462 16.9427C135.82 16.2849 136 15.5242 136 14.6598C136 13.7763 135.815 13.045 135.446 12.4655Z" fill="#3F9E57"/>
</g>
<defs>
<clipPath id="clip0_704_3643">
<rect width="136" height="26" fill="white"/>
</clipPath>
</defs>
</svg>
